<?xml version="1.0" encoding="UTF-8" standalone="no"?>
<!-- Created with Inkscape (http://www.inkscape.org/) -->

<svg
   xmlns:dc="http://purl.org/dc/elements/1.1/"
   xmlns:cc="http://creativecommons.org/ns#"
   xmlns:rdf="http://www.w3.org/1999/02/22-rdf-syntax-ns#"
   xmlns:svg="http://www.w3.org/2000/svg"
   xmlns="http://www.w3.org/2000/svg"
   xmlns:sodipodi="http://sodipodi.sourceforge.net/DTD/sodipodi-0.dtd"
   xmlns:inkscape="http://www.inkscape.org/namespaces/inkscape"
   width="213.68718mm"
   height="63.393078mm"
   viewBox="0 0 757.15931 224.62114"
   id="svg2"
   version="1.1"
   inkscape:version="0.91 r13725"
   sodipodi:docname="push-service-to-sw-event.svg">
  <defs
     id="defs4" />
  <sodipodi:namedview
     id="base"
     pagecolor="#ffffff"
     bordercolor="#666666"
     borderopacity="1.0"
     inkscape:pageopacity="0.0"
     inkscape:pageshadow="2"
     inkscape:zoom="1.979899"
     inkscape:cx="459.03982"
     inkscape:cy="65.758861"
     inkscape:document-units="px"
     inkscape:current-layer="layer1"
     showgrid="false"
     inkscape:window-width="2560"
     inkscape:window-height="1016"
     inkscape:window-x="0"
     inkscape:window-y="27"
     inkscape:window-maximized="1"
     fit-margin-top="10"
     fit-margin-left="10"
     fit-margin-right="10"
     fit-margin-bottom="10" />
  <metadata
     id="metadata7">
    <rdf:RDF>
      <cc:Work
         rdf:about="">
        <dc:format>image/svg+xml</dc:format>
        <dc:type
           rdf:resource="http://purl.org/dc/dcmitype/StillImage" />
        <dc:title></dc:title>
      </cc:Work>
    </rdf:RDF>
  </metadata>
  <g
     inkscape:label="Layer 1"
     inkscape:groupmode="layer"
     id="layer1"
     transform="translate(-43.790791,-784.90048)"
     style="display:inline">
    <g
       transform="matrix(3,0,0,3,212.35146,804.3358)"
       id="g14684">
      <g
         id="g14686" />
    </g>
    <g
       id="g4459"
       transform="translate(19.916769,0)">
      <text
         sodipodi:linespacing="125%"
         id="text14946"
         y="939.38397"
         x="417.95969"
         style="font-style:normal;font-weight:normal;font-size:40px;line-height:125%;font-family:sans-serif;text-align:center;letter-spacing:0px;word-spacing:0px;text-anchor:middle;fill:#000000;fill-opacity:1;stroke:none;stroke-width:1px;stroke-linecap:butt;stroke-linejoin:miter;stroke-opacity:1"
         xml:space="preserve"><tspan
           id="tspan4342"
           style="font-style:italic;font-variant:normal;font-weight:normal;font-stretch:normal;font-size:20px;font-family:sans-serif;-inkscape-font-specification:'sans-serif Italic'"
           y="939.38397"
           x="417.95969"
           sodipodi:role="line">Browser Wakes</tspan><tspan
           id="tspan4385"
           style="font-style:italic;font-variant:normal;font-weight:normal;font-stretch:normal;font-size:20px;font-family:sans-serif;-inkscape-font-specification:'sans-serif Italic'"
           y="964.38397"
           x="417.95969"
           sodipodi:role="line">Up Service Worker</tspan></text>
      <g
         transform="translate(-170.55334,16.017275)"
         id="g5167">
        <g
           style="display:inline"
           id="g14663"
           transform="matrix(2.9999998,0,0,3,654.10106,804.27878)">
          <path
             inkscape:connector-curvature="0"
             d="M 14.5,27 C 14.3,27 14,27 13.8,26.9 11.6,26.6 10,25.2 9.4,23 8.4,19.8 8,17.2 8,15 8,12.8 8.4,10.2 9.4,7 10,4.8 11.6,3.4 13.8,3.1 14.2,3 14.7,3 15.2,3.1 17.5,3.4 19,4.8 19.6,7 c 0.9,3.2 1.4,5.8 1.4,8 0,2.2 -0.4,4.8 -1.4,8 l 0,0 C 19,25.2 17.4,26.6 15.2,26.9 15,27 14.7,27 14.5,27 Z m 0,-23 C 14.3,4 14.1,4 14,4.1 12.1,4.4 10.9,5.5 10.4,7.3 9.4,10.3 9,12.9 9,15 c 0,2.1 0.4,4.7 1.3,7.7 0.5,1.9 1.8,2.9 3.6,3.2 0.4,0.1 0.7,0.1 1.1,0 1.9,-0.3 3.1,-1.4 3.6,-3.2 0.9,-3.1 1.3,-5.6 1.3,-7.7 0,-2.1 -0.4,-4.7 -1.3,-7.7 C 18.1,5.4 16.8,4.4 15,4.1 14.9,4 14.7,4 14.5,4 Z"
             id="path14665" />
        </g>
        <g
           style="display:inline"
           id="g15255"
           transform="translate(345.88463,-0.02004364)">
          <path
             transform="translate(56.78587,768.90273)"
             inkscape:connector-curvature="0"
             id="path14669"
             d="m 296.42969,35.433594 c -15.09614,0 -28.39489,8.58607 -35.80078,21.484375 0.59548,1.047572 1.14999,2.124811 1.6582,3.232422 6.63621,-12.92131 19.40952,-21.716797 34.14258,-21.716797 21.6,0 39,18.9 39,42 0,23.099996 -17.4,41.999996 -39,41.999996 -19.69519,0 -35.89107,-15.71677 -38.59571,-35.999996 l -3.01953,0 c 2.74858,22.048396 20.40464,38.999996 41.61524,38.999996 23.1,0 42,-20.1 42,-44.999996 0,-24.9 -18.9,-45 -42,-45 z" />
        </g>
        <path
           style="display:inline"
           d="m 625.67831,804.31632 c -13.64113,0 -25.99949,6.17013 -34.10742,16.04297 0.66115,0.78669 1.29555,1.59628 1.90234,2.42774 7.56132,-9.42187 19.26214,-15.47071 32.20508,-15.47071 17.4,0 33.00039,10.79883 38.40039,27.29883 0.6,1.5 0.90117,3 1.20118,4.5 0.59999,3 0.89843,6 0.89843,9 l 0,4.20117 -55.5,0 c -0.9,0 -1.5,0.6 -1.5,1.5 0,16.8 9.3,25.5 27,25.5 3.9,0 6.30078,-7.8e-4 7.80078,-0.30078 4.8,-0.6 9.30039,-2.4 12.90039,-4.5 l 0,11.40039 c -4.8,2.70001 -10.50078,4.49962 -16.80078,5.09962 -1.5,0.3 -3.30039,0.30078 -5.40039,0.30078 l -0.29883,0 c -4.2,0 -7.5,-0.60117 -10.5,-1.20117 -12.55696,-2.8431 -22.11573,-11.67429 -25.58203,-22.6504 -0.50439,1.14639 -1.04582,2.27361 -1.64062,3.36719 4.3542,10.69033 14.12265,19.21294 26.62305,22.28321 3.29999,0.9 6.89843,1.20117 11.39843,1.20117 l 0.60157,0 c 2.09999,0 3.89921,-7.8e-4 5.69921,-0.30078 6.9,-0.9 13.49961,-3 18.59961,-6.00001 0.3,-0.3 0.59961,-0.59922 0.59961,-1.19922 l 0,-15 c 0,-0.3 -0.29843,-0.90117 -0.89843,-1.20117 -0.60001,-0.3 -0.9,-0.3 -1.5,0 -3.90001,2.4 -8.70079,4.80039 -13.80079,5.40039 -1.8,0.3 -3.90078,0.30078 -7.80078,0.30078 -15.6,0 -23.4,-6.9 -24,-21 l 55.5,0 c 0.9,0 1.5,-0.6 1.5,-1.5 l 0,-5.70117 c 0,-3 -0.29843,-6.29961 -0.89843,-9.59961 -0.60001,-1.5 -0.9,-3.29883 -1.5,-4.79883 -5.70001,-17.7 -22.20157,-29.40039 -41.10157,-29.40039 z m 0,15 c -8.68126,0 -19.67191,1.66128 -29.42383,7.78321 0.50619,0.89192 0.99183,1.79578 1.4375,2.7246 9.23131,-5.89694 19.65695,-7.4073 27.98633,-7.20898 12.6,0 18.9,7.5 19.5,15 l -35.39843,0 0,-0.29883 c 0.59999,-2.7 1.19843,-4.79961 2.39843,-6.59961 0.3,-0.6 0.30117,-1.20078 -0.29883,-1.80078 -0.6,-0.6 -1.20078,-0.60078 -1.80078,-0.30078 -3.9,2.1 -5.69882,4.50117 -7.79882,7.20117 -0.55706,0.55706 -1.11482,1.35515 -1.67188,1.94922 0.31151,1.18109 0.56907,2.38222 0.78516,3.59961 0.37569,-0.57551 0.76869,-1.12738 1.18554,-1.64844 0.6,-0.6 1.20078,-1.50156 1.80078,-2.10156 0.9,-1.2 1.79922,-2.39883 2.69922,-3.29883 0,0.9 -0.29882,1.49961 -0.29882,2.09961 -0.30001,0.9 -0.30157,1.49961 -0.60157,2.09961 0,0.3 7.8e-4,0.90117 0.30078,1.20117 0.3,0.3 0.59922,0.59961 1.19922,0.59961 l 39,0 c 0.9,0 1.5,-0.6 1.5,-1.5 0,-9.6 -7.8,-19.5 -22.5,-19.5 z"
           id="path14592"
           inkscape:connector-curvature="0" />
        <g
           style="display:inline"
           id="g15244"
           transform="translate(345.88463,-0.02004364)">
          <path
             transform="translate(56.78587,768.90273)"
             id="path14446"
             d="m 154.43359,35.433594 c -14.71076,0 -27.74225,7.018233 -35.94726,17.894531 0.60221,0.923367 1.17311,1.879442 1.71094,2.869141 7.62904,-10.726245 20.14728,-17.763672 34.23632,-17.763672 23.1,0 42,18.9 42,42 0,23.099996 -18.9,41.999996 -42,41.999996 -14.80925,0 -27.88363,-7.77498 -35.36718,-19.4375 -0.58365,0.94382 -1.21115,1.85792 -1.86524,2.75196 8.08894,11.89069 21.72936,19.68554 37.23242,19.68554 24.9,0 45,-20.1 45,-44.999996 0,-24.9 -20.1,-45 -45,-45 z m -44.01562,35.599609 c -0.29894,1.412955 -0.52991,2.851504 -0.69336,4.310547 0.14058,0.496251 0.28966,0.992355 0.4082,1.490234 0.3,-1.8 0.30078,-3.90039 0.30078,-5.40039 0,-0.130892 -0.0138,-0.268493 -0.0156,-0.400391 z"
             inkscape:connector-curvature="0" />
          <g
             id="g14428"
             transform="matrix(3,0,0,3,166.21894,804.33581)">
            <path
               id="path14430"
               d="M 28,10 15,10 C 14.7,10 14.5,9.8 14.5,9.5 14.5,9.2 14.7,9 15,9 l 13,0 c 0.3,0 0.5,0.2 0.5,0.5 0,0.3 -0.2,0.5 -0.5,0.5 z"
               inkscape:connector-curvature="0" />
          </g>
          <g
             id="g14432"
             transform="matrix(3,0,0,3,166.21894,804.33581)">
            <path
               id="path14434"
               d="M 10,18 C 9.8,18 9.7,17.9 9.6,17.8 L 3.1,6.8 C 2.9,6.5 3,6.2 3.2,6.1 3.5,5.9 3.8,6 3.9,6.2 l 6.5,11 c 0.1,0.2 0.1,0.5 -0.2,0.7 0,0.1 -0.1,0.1 -0.2,0.1 z"
               inkscape:connector-curvature="0" />
          </g>
          <g
             id="g14436"
             transform="matrix(3,0,0,3,166.21894,804.33581)">
            <path
               id="path14438"
               d="m 14,29.5 c -0.1,0 -0.2,0 -0.2,-0.1 -0.2,-0.1 -0.3,-0.4 -0.2,-0.7 l 5,-10 c 0.1,-0.2 0.4,-0.3 0.7,-0.2 0.2,0.1 0.3,0.4 0.2,0.7 l -5,10 c -0.1,0.2 -0.3,0.3 -0.5,0.3 z"
               inkscape:connector-curvature="0" />
          </g>
          <g
             id="g14440"
             transform="matrix(3,0,0,3,166.21894,804.33581)">
            <path
               id="path14442"
               d="m 15,21 c -3.3,0 -6,-2.7 -6,-6 0,-3.3 2.7,-6 6,-6 3.3,0 6,2.7 6,6 0,3.3 -2.7,6 -6,6 z m 0,-11 c -2.8,0 -5,2.2 -5,5 0,2.8 2.2,5 5,5 2.8,0 5,-2.2 5,-5 0,-2.8 -2.2,-5 -5,-5 z"
               inkscape:connector-curvature="0" />
          </g>
        </g>
        <path
           style="display:inline"
           id="path14523"
           d="m 483.10357,892.81633 c -24.3,0 -45,-20.70001 -45,-45.30001 0,-5.4 0.6,-15 4.2,-22.2 -1.2,-3.9 -2.4,-11.4 2.1,-16.2 0.3,-0.3 1.2,-0.6 1.5,-0.3 0.9,0.3 1.2,0.9 1.2,1.5 0,1.5 0.9,4.8 2.4,7.2 0.9,1.5 2.4,3.3 3.3,3.6 1.8,-0.3 6.3,-0.6 8.7,0 1.8,-2.4 5.1,-6.3 11.1,-6.3 0.6,0 1.2,0.3 1.5,0.9 0.3,0.6 0,1.2 -0.3,1.5 -2.4,2.4 -5.7,7.2 -4.8,9.9 0.6,1.8 3.6,2.7 8.1,2.7 l 4.5,0 c 0.6,0 1.2,0.6 1.5,1.2 0.3,0.6 -0.3,1.5 -0.9,1.8 l -10.8,5.4 c 0.3,1.5 0.6,3.6 -0.9,4.8 -0.3,0.3 -0.6,0.3 -1.2,0.3 l 0,0 c -0.3,0 -0.9,-0.3 -1.2,-0.3 0,0 -0.6,0.3 -1.5,0.9 -0.6,0.9 -1.5,2.4 -1.5,3.9 0,5.1 6.6,6 10.5,6 4.8,0 6,-0.9 7.2,-1.5 1.2,-0.6 2.4,-1.5 4.8,-1.5 5.7,0 7.5,6.9 7.5,7.2 0,0.3 0,0.9 -0.3,1.2 -0.3,0.3 -0.6,0.6 -1.2,0.6 -2.7,0 -5.7,1.2 -9,2.7 -2.4,0.9 -4.5,2.1 -7.2,2.7 2.1,0.6 4.2,0.6 7.2,0.6 11.1,0 19.5,-9 19.5,-21 0,-4.8 -0.3,-9.3 -2.7,-12.6 -0.3,-0.6 -0.3,-1.5 0.3,-2.1 0.6,-0.6 1.5,-0.6 2.1,0 4.2,3 7.5,9.3 9,15.6 0.3,-1.8 0.3,-3.9 0.3,-5.4 0,-11.4 -6.9,-26.7 -14.4,-31.8 -0.6,-0.3 -0.9,-1.2 -0.6,-1.8 0.3,-0.6 1.2,-0.9 1.8,-0.9 13.8,4.2 28.2,18.6 28.2,40.5 l 0,3 c 0,24.3 -19.8,43.50001 -45,43.50001 z m -37.8,-66.60001 c -3.6,7.2 -4.2,16.2 -4.2,21.3 0,22.8 19.2,42.30001 42,42.30001 23.7,0 42,-17.70001 42,-40.50001 l 0,-3 c 0,-16.5 -8.7,-28.5 -18.6,-34.2 6,7.8 9.6,19.8 9.6,28.2 0,3 0,7.8 -3.6,10.2 -0.3,0.3 -0.9,0.3 -1.5,0 -0.6,0 -0.9,-0.6 -0.9,-1.2 -0.3,-3.6 -1.5,-7.5 -3.3,-10.8 0.3,2.1 0.3,3.9 0.3,6 0,13.8 -9.6,24 -22.5,24 -5.1,0 -8.7,-0.3 -12.9,-3.3 -0.6,0 -0.6,-0.9 -0.6,-1.5 0,-0.6 0.9,-0.9 1.5,-0.9 3.6,0 7.2,-1.5 10.8,-3 2.7,-1.2 5.4,-2.4 8.1,-2.7 -0.6,-1.5 -1.8,-3.3 -3.9,-3.3 -1.5,0 -2.1,0.3 -3,0.9 -1.5,0.9 -3.3,2.1 -9,2.1 -12.3,0 -13.5,-6.3 -13.5,-9 0,-3.3 2.4,-6.6 5.1,-7.5 0.6,-0.3 1.2,-0.3 1.5,-0.3 0,-0.6 -0.3,-1.5 -0.6,-2.1 -0.3,-0.6 0,-1.5 0.6,-1.8 l 6.3,-3.3 c -5.1,-0.3 -8.1,-1.8 -9,-4.5 -1.2,-3.3 0.6,-6.9 2.4,-9.6 -2.1,0.9 -3.9,3 -4.8,4.5 l -0.3,0.3 c -0.3,0.6 -1.2,0.9 -1.8,0.6 -0.9,-0.3 -6.9,-0.3 -8.4,0 -2.4,0.6 -5.7,-3.9 -6.3,-5.1 -0.6,-1.5 -1.5,-3 -2.1,-4.8 -1.5,4.2 0.3,9.3 0.6,10.2 0.3,0.6 0.3,0.9 0.3,1.2 0,0.3 -0.3,0.3 -0.3,0.6 z"
           inkscape:connector-curvature="0" />
      </g>
    </g>
    <g
       id="g4515">
      <text
         sodipodi:linespacing="125%"
         id="text14942-3"
         y="941.28339"
         x="169.25682"
         style="font-style:normal;font-weight:normal;font-size:40px;line-height:125%;font-family:sans-serif;letter-spacing:0px;word-spacing:0px;display:inline;fill:#000000;fill-opacity:1;stroke:none;stroke-width:1px;stroke-linecap:butt;stroke-linejoin:miter;stroke-opacity:1"
         xml:space="preserve"><tspan
           style="font-size:22.5px;text-align:center;text-anchor:middle"
           y="941.28339"
           x="169.25682"
           id="tspan14944-6"
           sodipodi:role="line">Message Arrives</tspan><tspan
           id="tspan4383"
           style="font-size:22.5px;text-align:center;text-anchor:middle"
           y="969.40839"
           x="169.25682"
           sodipodi:role="line">on Device</tspan></text>
      <g
         transform="matrix(2.4,0,0,2.4,133.80614,829.33358)"
         id="XMLID_49_">
        <g
           id="XMLID_535_">
          <path
             inkscape:connector-curvature="0"
             id="XMLID_522_"
             d="m 20.5,30 -11,0 C 7.6,30 6,28.4 6,26.5 L 6,3.5 C 6,1.6 7.6,0 9.5,0 l 11,0 C 22.4,0 24,1.6 24,3.5 l 0,23 C 24,28.4 22.4,30 20.5,30 Z M 9.5,1 C 8.1,1 7,2.1 7,3.5 l 0,23 C 7,27.9 8.1,29 9.5,29 l 11,0 c 1.4,0 2.5,-1.1 2.5,-2.5 l 0,-23 C 23,2.1 21.9,1 20.5,1 l -11,0 z" />
        </g>
        <g
           id="XMLID_50_">
          <path
             inkscape:connector-curvature="0"
             id="XMLID_521_"
             d="M 23.5,5 6.5,5 C 6.2,5 6,4.8 6,4.5 6,4.2 6.2,4 6.5,4 l 17,0 C 23.8,4 24,4.2 24,4.5 24,4.8 23.8,5 23.5,5 Z" />
        </g>
        <g
           id="XMLID_51_">
          <path
             inkscape:connector-curvature="0"
             id="XMLID_520_"
             d="M 23,25 7,25 C 6.7,25 6.5,24.8 6.5,24.5 6.5,24.2 6.7,24 7,24 l 16,0 c 0.3,0 0.5,0.2 0.5,0.5 0,0.3 -0.2,0.5 -0.5,0.5 z" />
        </g>
        <g
           id="XMLID_53_">
          <path
             inkscape:connector-curvature="0"
             id="XMLID_519_"
             d="m 17.5,3 -5,0 C 12.2,3 12,2.8 12,2.5 12,2.2 12.2,2 12.5,2 l 5,0 C 17.8,2 18,2.2 18,2.5 18,2.8 17.8,3 17.5,3 Z" />
        </g>
        <g
           id="XMLID_54_">
          <path
             inkscape:connector-curvature="0"
             id="XMLID_518_"
             d="M 20.5,3 C 20.2,3 20,2.8 20,2.5 20,2.2 20.2,2 20.5,2 l 0,0 C 20.8,2 21,2.2 21,2.5 21,2.8 20.8,3 20.5,3 Z" />
        </g>
        <g
           id="XMLID_2_">
          <circle
             id="XMLID_517_"
             cx="15"
             cy="27"
             r="1" />
        </g>
      </g>
    </g>
    <g
       id="g4445"
       transform="translate(8.0550781e-5,0)">
      <text
         sodipodi:linespacing="125%"
         id="text14885"
         y="941.28339"
         x="691.49115"
         style="font-style:normal;font-weight:normal;font-size:40px;line-height:125%;font-family:sans-serif;text-align:center;letter-spacing:0px;word-spacing:0px;text-anchor:middle;display:inline;fill:#000000;fill-opacity:1;stroke:none;stroke-width:1px;stroke-linecap:butt;stroke-linejoin:miter;stroke-opacity:1"
         xml:space="preserve"><tspan
           id="tspan5165"
           style="font-size:22.5px;text-align:center;text-anchor:middle"
           y="941.28339"
           x="691.49115"
           sodipodi:role="line">Push Event</tspan><tspan
           id="tspan4391"
           style="font-size:22.5px;text-align:center;text-anchor:middle"
           y="969.40839"
           x="691.49115"
           sodipodi:role="line">is Dispatched</tspan></text>
      <g
         transform="matrix(2.4666667,0,0,2.4666667,661.92962,828.33358)"
         id="g4400">
        <g
           id="g4402">
          <path
             inkscape:connector-curvature="0"
             d="M 21.9,27 2.1,27 C 0.9,27 0,26 0,24.9 0,24.6 0.1,24.3 0.2,24 0.8,22.7 3.8,16 3.8,10.5 3.8,5.8 7.5,2 12,2 c 4.5,0 8.2,3.8 8.2,8.5 0,5.4 3,12.2 3.6,13.5 0.1,0.3 0.2,0.6 0.2,0.9 C 24,26 23.1,27 21.9,27 Z M 12,3 C 8,3 4.8,6.4 4.8,10.5 4.8,16 2,22.5 1.1,24.4 1,24.5 1,24.7 1,24.9 1,25.5 1.5,26 2.1,26 L 22,26 c 0.6,0 1.1,-0.5 1.1,-1.1 0,-0.2 0,-0.3 -0.1,-0.5 0,0 0,0 0,0 C 22.1,22.5 19.3,16 19.3,10.5 19.2,6.4 16,3 12,3 Z"
             id="path4404" />
        </g>
        <g
           id="g4406">
          <path
             inkscape:connector-curvature="0"
             d="m 2.8,24.9 c -0.1,0 -0.1,0 -0.2,0 C 2.3,24.8 2.2,24.5 2.3,24.2 3.4,21.8 5.8,15.7 5.8,10.5 5.8,7 8.6,4.1 12,4.1 c 0.3,0 0.5,0.2 0.5,0.5 0,0.3 -0.2,0.5 -0.5,0.5 -2.8,0 -5.2,2.4 -5.2,5.4 0,5.4 -2.5,11.7 -3.6,14.1 -0.1,0.2 -0.2,0.3 -0.4,0.3 z"
             id="path4408" />
        </g>
        <g
           id="g4410">
          <path
             inkscape:connector-curvature="0"
             d="M 12,30 C 9.8,30 8,28.4 8,26.5 8,26.2 8.2,26 8.5,26 8.8,26 9,26.2 9,26.5 c 0,1.4 1.3,2.5 3,2.5 1.7,0 3,-1.1 3,-2.5 0,-0.3 0.2,-0.5 0.5,-0.5 0.3,0 0.5,0.2 0.5,0.5 0,1.9 -1.8,3.5 -4,3.5 z"
             id="path4412" />
        </g>
        <g
           id="g4422">
          <path
             inkscape:connector-curvature="0"
             d="M 14.5,3.5 C 14.2,3.5 14,3.3 14,3 14,1.9 13.1,1 12,1 10.9,1 10,1.9 10,3 10,3.3 9.8,3.5 9.5,3.5 9.2,3.5 9,3.3 9,3 9,1.3 10.3,0 12,0 c 1.7,0 3,1.3 3,3 0,0.3 -0.2,0.5 -0.5,0.5 z"
             id="path4424" />
        </g>
      </g>
    </g>
  </g>
  <g
     inkscape:groupmode="layer"
     id="layer3"
     inkscape:label="Opera"
     transform="translate(48.42815,-37.594764)"
     style="display:inline" />
  <style
     id="style9651"
     type="text/css">
	.st0{fill:#231F20;}
</style>
  <style
     id="style11289"
     type="text/css">
	.st0{fill:#231F20;}
</style>
  <style
     id="style4335"
     type="text/css">
	.st0{fill:#231F20;}
</style>
</svg>
