<?xml version="1.0" encoding="UTF-8" standalone="no"?>
<!-- Created with Inkscape (http://www.inkscape.org/) -->

<svg
   xmlns:dc="http://purl.org/dc/elements/1.1/"
   xmlns:cc="http://creativecommons.org/ns#"
   xmlns:rdf="http://www.w3.org/1999/02/22-rdf-syntax-ns#"
   xmlns:svg="http://www.w3.org/2000/svg"
   xmlns="http://www.w3.org/2000/svg"
   xmlns:sodipodi="http://sodipodi.sourceforge.net/DTD/sodipodi-0.dtd"
   xmlns:inkscape="http://www.inkscape.org/namespaces/inkscape"
   width="210.46965mm"
   height="62.713833mm"
   viewBox="0 0 745.75862 222.21437"
   id="svg2"
   version="1.1"
   inkscape:version="0.91 r13725"
   sodipodi:docname="push-service-to-sw-event.svg">
  <defs
     id="defs4" />
  <sodipodi:namedview
     id="base"
     pagecolor="#ffffff"
     bordercolor="#666666"
     borderopacity="1.0"
     inkscape:pageopacity="0.0"
     inkscape:pageshadow="2"
     inkscape:zoom="1.979899"
     inkscape:cx="448.51183"
     inkscape:cy="23.143836"
     inkscape:document-units="px"
     inkscape:current-layer="layer1"
     showgrid="false"
     inkscape:window-width="3200"
     inkscape:window-height="1671"
     inkscape:window-x="0"
     inkscape:window-y="55"
     inkscape:window-maximized="1"
     fit-margin-top="10"
     fit-margin-left="10"
     fit-margin-right="10"
     fit-margin-bottom="10" />
  <metadata
     id="metadata7">
    <rdf:RDF>
      <cc:Work
         rdf:about="">
        <dc:format>image/svg+xml</dc:format>
        <dc:type
           rdf:resource="http://purl.org/dc/dcmitype/StillImage" />
        <dc:title></dc:title>
      </cc:Work>
    </rdf:RDF>
  </metadata>
  <g
     inkscape:label="Layer 1"
     inkscape:groupmode="layer"
     id="layer1"
     transform="translate(-14.774632,-768.88321)"
     style="display:inline">
    <g
       id="g11291"
       transform="matrix(2.88,0,0,2.88,271.7054,806.1358)">
      <g
         id="g11293">
        <circle
           id="circle11295"
           r="0.5"
           cy="15"
           cx="29"
           class="st0"
           style="fill:#231f20" />
      </g>
      <g
         id="g11297">
        <circle
           id="circle11299"
           r="0.5"
           cy="15"
           cx="27"
           class="st0"
           style="fill:#231f20" />
      </g>
      <g
         id="g11301">
        <circle
           id="circle11303"
           r="0.5"
           cy="17"
           cx="27"
           class="st0"
           style="fill:#231f20" />
      </g>
      <g
         id="g11305">
        <circle
           id="circle11307"
           r="0.5"
           cy="13"
           cx="27"
           class="st0"
           style="fill:#231f20" />
      </g>
      <g
         id="g11309">
        <circle
           id="circle11311"
           r="0.5"
           cy="17"
           cx="25"
           class="st0"
           style="fill:#231f20" />
      </g>
      <g
         id="g11313">
        <circle
           id="circle11315"
           r="0.5"
           cy="19"
           cx="25"
           class="st0"
           style="fill:#231f20" />
      </g>
      <g
         id="g11317">
        <circle
           id="circle11319"
           r="0.5"
           cy="13"
           cx="25"
           class="st0"
           style="fill:#231f20" />
      </g>
      <g
         id="g11321">
        <circle
           id="circle11323"
           r="0.5"
           cy="11"
           cx="25"
           class="st0"
           style="fill:#231f20" />
      </g>
      <g
         id="g11325">
        <circle
           id="circle11327"
           r="0.5"
           cy="17"
           cx="23"
           class="st0"
           style="fill:#231f20" />
      </g>
      <g
         id="g11329">
        <circle
           id="circle11331"
           r="0.5"
           cy="19"
           cx="23"
           class="st0"
           style="fill:#231f20" />
      </g>
      <g
         id="g11333">
        <circle
           id="circle11335"
           r="0.5"
           cy="21"
           cx="23"
           class="st0"
           style="fill:#231f20" />
      </g>
      <g
         id="g11337">
        <circle
           id="circle11339"
           r="0.5"
           cy="13"
           cx="23"
           class="st0"
           style="fill:#231f20" />
      </g>
      <g
         id="g11341">
        <circle
           id="circle11343"
           r="0.5"
           cy="11"
           cx="23"
           class="st0"
           style="fill:#231f20" />
      </g>
      <g
         id="g11345">
        <circle
           id="circle11347"
           r="0.5"
           cy="9"
           cx="23"
           class="st0"
           style="fill:#231f20" />
      </g>
      <g
         id="g11349">
        <circle
           id="circle11351"
           r="0.5"
           cy="17"
           cx="21"
           class="st0"
           style="fill:#231f20" />
      </g>
      <g
         id="g11353">
        <circle
           id="circle11355"
           r="0.5"
           cy="19"
           cx="21"
           class="st0"
           style="fill:#231f20" />
      </g>
      <g
         id="g11357">
        <circle
           id="circle11359"
           r="0.5"
           cy="21"
           cx="21"
           class="st0"
           style="fill:#231f20" />
      </g>
      <g
         id="g11361">
        <circle
           id="circle11363"
           r="0.5"
           cy="23"
           cx="21"
           class="st0"
           style="fill:#231f20" />
      </g>
      <g
         id="g11365">
        <circle
           id="circle11367"
           r="0.5"
           cy="13"
           cx="21"
           class="st0"
           style="fill:#231f20" />
      </g>
      <g
         id="g11369">
        <circle
           id="circle11371"
           r="0.5"
           cy="11"
           cx="21"
           class="st0"
           style="fill:#231f20" />
      </g>
      <g
         id="g11373">
        <circle
           id="circle11375"
           r="0.5"
           cy="9"
           cx="21"
           class="st0"
           style="fill:#231f20" />
      </g>
      <g
         id="g11377">
        <circle
           id="circle11379"
           r="0.5"
           cy="7"
           cx="21"
           class="st0"
           style="fill:#231f20" />
      </g>
      <g
         id="g11381">
        <circle
           id="circle11383"
           r="0.5"
           cy="17"
           cx="19"
           class="st0"
           style="fill:#231f20" />
      </g>
      <g
         id="g11385">
        <circle
           id="circle11387"
           r="0.5"
           cy="19"
           cx="19"
           class="st0"
           style="fill:#231f20" />
      </g>
      <g
         id="g11389">
        <circle
           id="circle11391"
           r="0.5"
           cy="21"
           cx="19"
           class="st0"
           style="fill:#231f20" />
      </g>
      <g
         id="g11393">
        <circle
           id="circle11395"
           r="0.5"
           cy="23"
           cx="19"
           class="st0"
           style="fill:#231f20" />
      </g>
      <g
         id="g11397">
        <circle
           id="circle11399"
           r="0.5"
           cy="25"
           cx="19"
           class="st0"
           style="fill:#231f20" />
      </g>
      <g
         id="g11401">
        <circle
           id="circle11403"
           r="0.5"
           cy="13"
           cx="19"
           class="st0"
           style="fill:#231f20" />
      </g>
      <g
         id="g11405">
        <circle
           id="circle11407"
           r="0.5"
           cy="11"
           cx="19"
           class="st0"
           style="fill:#231f20" />
      </g>
      <g
         id="g11409">
        <circle
           id="circle11411"
           r="0.5"
           cy="9"
           cx="19"
           class="st0"
           style="fill:#231f20" />
      </g>
      <g
         id="g11413">
        <circle
           id="circle11415"
           r="0.5"
           cy="7"
           cx="19"
           class="st0"
           style="fill:#231f20" />
      </g>
      <g
         id="g11417">
        <circle
           id="circle11419"
           r="0.5"
           cy="5"
           cx="19"
           class="st0"
           style="fill:#231f20" />
      </g>
      <g
         id="g11421">
        <circle
           id="circle11423"
           r="0.5"
           cy="17"
           cx="17"
           class="st0"
           style="fill:#231f20" />
      </g>
      <g
         id="g11425">
        <circle
           id="circle11427"
           r="0.5"
           cy="19"
           cx="17"
           class="st0"
           style="fill:#231f20" />
      </g>
      <g
         id="g11429">
        <circle
           id="circle11431"
           r="0.5"
           cy="21"
           cx="17"
           class="st0"
           style="fill:#231f20" />
      </g>
      <g
         id="g11433">
        <circle
           id="circle11435"
           r="0.5"
           cy="23"
           cx="17"
           class="st0"
           style="fill:#231f20" />
      </g>
      <g
         id="g11437">
        <circle
           id="circle11439"
           r="0.5"
           cy="25"
           cx="17"
           class="st0"
           style="fill:#231f20" />
      </g>
      <g
         id="g11441">
        <circle
           id="circle11443"
           r="0.5"
           cy="27"
           cx="17"
           class="st0"
           style="fill:#231f20" />
      </g>
      <g
         id="g11445">
        <circle
           id="circle11447"
           r="0.5"
           cy="13"
           cx="17"
           class="st0"
           style="fill:#231f20" />
      </g>
      <g
         id="g11449">
        <circle
           id="circle11451"
           r="0.5"
           cy="11"
           cx="17"
           class="st0"
           style="fill:#231f20" />
      </g>
      <g
         id="g11453">
        <circle
           id="circle11455"
           r="0.5"
           cy="9"
           cx="17"
           class="st0"
           style="fill:#231f20" />
      </g>
      <g
         id="g11457">
        <circle
           id="circle11459"
           r="0.5"
           cy="7"
           cx="17"
           class="st0"
           style="fill:#231f20" />
      </g>
      <g
         id="g11461">
        <circle
           id="circle11463"
           r="0.5"
           cy="5"
           cx="17"
           class="st0"
           style="fill:#231f20" />
      </g>
      <g
         id="g11465">
        <circle
           id="circle11467"
           r="0.5"
           cy="3"
           cx="17"
           class="st0"
           style="fill:#231f20" />
      </g>
      <g
         id="g11469">
        <circle
           id="circle11471"
           r="0.5"
           cy="15"
           cx="25"
           class="st0"
           style="fill:#231f20" />
      </g>
      <g
         id="g11473">
        <circle
           id="circle11475"
           r="0.5"
           cy="15"
           cx="23"
           class="st0"
           style="fill:#231f20" />
      </g>
      <g
         id="g11477">
        <circle
           id="circle11479"
           r="0.5"
           cy="15"
           cx="21"
           class="st0"
           style="fill:#231f20" />
      </g>
      <g
         id="g11481">
        <circle
           id="circle11483"
           r="0.5"
           cy="15"
           cx="19"
           class="st0"
           style="fill:#231f20" />
      </g>
      <g
         id="g11485">
        <circle
           id="circle11487"
           r="0.5"
           cy="15"
           cx="17"
           class="st0"
           style="fill:#231f20" />
      </g>
      <g
         id="g11489">
        <circle
           id="circle11491"
           r="0.5"
           cy="17"
           cx="15"
           class="st0"
           style="fill:#231f20" />
      </g>
      <g
         id="g11493">
        <circle
           id="circle11495"
           r="0.5"
           cy="13"
           cx="15"
           class="st0"
           style="fill:#231f20" />
      </g>
      <g
         id="g11497">
        <circle
           id="circle11499"
           r="0.5"
           cy="15"
           cx="15"
           class="st0"
           style="fill:#231f20" />
      </g>
      <g
         id="g11501">
        <circle
           id="circle11503"
           r="0.5"
           cy="17"
           cx="13"
           class="st0"
           style="fill:#231f20" />
      </g>
      <g
         id="g11505">
        <circle
           id="circle11507"
           r="0.5"
           cy="13"
           cx="13"
           class="st0"
           style="fill:#231f20" />
      </g>
      <g
         id="g11509">
        <circle
           id="circle11511"
           r="0.5"
           cy="15"
           cx="13"
           class="st0"
           style="fill:#231f20" />
      </g>
      <g
         id="g11513">
        <circle
           id="circle11515"
           r="0.5"
           cy="17"
           cx="11"
           class="st0"
           style="fill:#231f20" />
      </g>
      <g
         id="g11517">
        <circle
           id="circle11519"
           r="0.5"
           cy="13"
           cx="11"
           class="st0"
           style="fill:#231f20" />
      </g>
      <g
         id="g11521">
        <circle
           id="circle11523"
           r="0.5"
           cy="15"
           cx="11"
           class="st0"
           style="fill:#231f20" />
      </g>
      <g
         id="g11525">
        <circle
           id="circle11527"
           r="0.5"
           cy="17"
           cx="9"
           class="st0"
           style="fill:#231f20" />
      </g>
      <g
         id="g11529">
        <circle
           id="circle11531"
           r="0.5"
           cy="13"
           cx="9"
           class="st0"
           style="fill:#231f20" />
      </g>
      <g
         id="g11533">
        <circle
           id="circle11535"
           r="0.5"
           cy="15"
           cx="9"
           class="st0"
           style="fill:#231f20" />
      </g>
      <g
         id="g11537">
        <circle
           id="circle11539"
           r="0.5"
           cy="17"
           cx="7"
           class="st0"
           style="fill:#231f20" />
      </g>
      <g
         id="g11541">
        <circle
           id="circle11543"
           r="0.5"
           cy="13"
           cx="7"
           class="st0"
           style="fill:#231f20" />
      </g>
      <g
         id="g11545">
        <circle
           id="circle11547"
           r="0.5"
           cy="15"
           cx="7"
           class="st0"
           style="fill:#231f20" />
      </g>
      <g
         id="g11549">
        <circle
           id="circle11551"
           r="0.5"
           cy="17"
           cx="5"
           class="st0"
           style="fill:#231f20" />
      </g>
      <g
         id="g11553">
        <circle
           id="circle11555"
           r="0.5"
           cy="13"
           cx="5"
           class="st0"
           style="fill:#231f20" />
      </g>
      <g
         id="g11557">
        <circle
           id="circle11559"
           r="0.5"
           cy="15"
           cx="5"
           class="st0"
           style="fill:#231f20" />
      </g>
      <g
         id="g11561">
        <circle
           id="circle11563"
           r="0.5"
           cy="17"
           cx="3"
           class="st0"
           style="fill:#231f20" />
      </g>
      <g
         id="g11565">
        <circle
           id="circle11567"
           r="0.5"
           cy="13"
           cx="3"
           class="st0"
           style="fill:#231f20" />
      </g>
      <g
         id="g11569">
        <circle
           id="circle11571"
           r="0.5"
           cy="15"
           cx="3"
           class="st0"
           style="fill:#231f20" />
      </g>
      <g
         id="g11573">
        <circle
           id="circle11575"
           r="0.5"
           cy="17"
           cx="1"
           class="st0"
           style="fill:#231f20" />
      </g>
      <g
         id="g11577">
        <circle
           id="circle11579"
           r="0.5"
           cy="13"
           cx="1"
           class="st0"
           style="fill:#231f20" />
      </g>
      <g
         id="g11581">
        <circle
           id="circle11583"
           r="0.5"
           cy="15"
           cx="1"
           class="st0"
           style="fill:#231f20" />
      </g>
    </g>
    <g
       transform="matrix(3,0,0,3,212.35146,804.3358)"
       id="g14684">
      <g
         id="g14686" />
    </g>
    <text
       xml:space="preserve"
       style="font-style:normal;font-weight:normal;font-size:40px;line-height:125%;font-family:sans-serif;text-align:center;letter-spacing:0px;word-spacing:0px;text-anchor:middle;fill:#000000;fill-opacity:1;stroke:none;stroke-width:1px;stroke-linecap:butt;stroke-linejoin:miter;stroke-opacity:1"
       x="315.08118"
       y="938.4129"
       id="text14946"
       sodipodi:linespacing="125%"><tspan
         sodipodi:role="line"
         x="315.08118"
         y="938.4129"
         style="font-style:italic;font-variant:normal;font-weight:normal;font-stretch:normal;font-size:20px;font-family:sans-serif;-inkscape-font-specification:'sans-serif Italic'"
         id="tspan4342">Push Message</tspan></text>
    <g
       id="g6292"
       transform="translate(-411.00742,0)">
      <g
         transform="matrix(3,0,0,3,486.42875,801.29188)"
         id="g4635">
        <g
           id="g4637">
          <path
             inkscape:connector-curvature="0"
             d="M 18.4,25 4.5,25 C 2,25 0,22.9 0,20.5 0,18.2 1.7,16.3 4,16.1 4,16 4,15.9 4,15.8 4,11.6 7.4,8.1 11.6,8.1 c 3.5,0 6.5,2.3 7.4,5.6 2.9,0.3 5,2.7 5,5.6 0,3.1 -2.5,5.7 -5.6,5.7 z M 4.5,17 C 2.6,17 1,18.6 1,20.5 1,22.4 2.6,24 4.5,24 l 13.9,0 c 2.6,0 4.7,-2.1 4.7,-4.7 0,-2.5 -2,-4.6 -4.5,-4.7 -0.2,0 -0.4,-0.2 -0.5,-0.4 C 17.4,11.1 14.7,9 11.6,9 8,9.1 5,12 5,15.7 5,16 5,16.2 5,16.4 5,16.6 5,16.7 4.9,16.8 4.8,17 4.6,17 4.5,17 c 0,0 0,0 0,0 z"
             id="path4639" />
        </g>
        <g
           id="g4641">
          <path
             inkscape:connector-curvature="0"
             d="m 25.2,21.9 c -0.2,0 -0.4,-0.2 -0.5,-0.4 0,-0.3 0.1,-0.5 0.4,-0.6 2.2,-0.4 3.9,-2.3 3.9,-4.6 0,-2.5 -2,-4.6 -4.5,-4.7 -0.2,0 -0.4,-0.2 -0.5,-0.4 C 23.3,8.1 20.6,6 17.5,6 16.2,6 14.9,6.4 13.8,7.1 13.6,7.3 13.3,7.2 13.1,7 12.9,6.8 13,6.5 13.2,6.3 14.6,5.5 16,5 17.6,5 c 3.5,0 6.5,2.3 7.4,5.6 2.9,0.3 5,2.7 5,5.6 0,2.8 -2,5.2 -4.8,5.7 0.1,0 0.1,0 0,0 z"
             id="path4643" />
        </g>
      </g>
      <g
         transform="translate(504.2609,840.25791)"
         id="g6223">
        <g
           id="g6225">
          <path
             inkscape:connector-curvature="0"
             d="M 15.5,26.3 C 15.3,26.3 15.1,26.2 15,26 L 12.6,18.7 5.3,16.3 C 5.2,16.2 5,16 5,15.8 5,15.6 5.1,15.4 5.2,15.3 l 24,-14 c 0.2,-0.1 0.4,-0.1 0.5,0 0.2,0.2 0.3,0.4 0.3,0.6 l -4,21 c 0,0.1 -0.1,0.3 -0.2,0.3 -0.1,0.1 -0.3,0.1 -0.4,0 L 16.9,20 16,25.9 c 0,0.2 -0.2,0.4 -0.5,0.4 0,0 0,0 0,0 z m -8.8,-10.6 6.5,2.2 c 0.1,0 0.3,0.2 0.3,0.3 l 1.8,5.5 0.7,-4.5 c 0,-0.2 0.1,-0.3 0.2,-0.4 0.1,-0.1 0.3,-0.1 0.4,0 L 25,22.1 28.7,2.8 6.7,15.7 Z"
             id="path6227" />
        </g>
        <g
           id="g6229">
          <path
             inkscape:connector-curvature="0"
             d="m 16.5,19.8 c -0.1,0 -0.2,0 -0.3,-0.1 C 16,19.5 15.9,19.2 16.1,19 L 25,7 13.4,18.6 c -0.2,0.2 -0.5,0.2 -0.7,0 -0.2,-0.2 -0.2,-0.5 0,-0.7 L 29.1,1.4 c 0.2,-0.2 0.5,-0.2 0.7,0 0.2,0.2 0.2,0.5 0.1,0.7 l -13,17.5 c -0.1,0.1 -0.2,0.2 -0.4,0.2 z"
             id="path6231" />
        </g>
        <g
           id="g6233">
          <path
             inkscape:connector-curvature="0"
             d="m 15.5,26.3 c -0.1,0 -0.2,0 -0.3,-0.1 C 15,26 14.9,25.7 15.1,25.5 l 4,-5 c 0.2,-0.2 0.5,-0.2 0.7,-0.1 0.2,0.2 0.3,0.5 0.1,0.7 l -4,5 c -0.1,0.1 -0.3,0.2 -0.4,0.2 z"
             id="path6235" />
        </g>
        <g
           id="g6237">
          <g
             id="g6239">
            <g
               id="g6241">
              <path
                 inkscape:connector-curvature="0"
                 d="m 1.4,24.7 c -0.1,0 -0.2,0 -0.3,-0.1 C 0.8,24.3 0.5,24 0.2,23.7 0,23.5 0,23.2 0.2,23 c 0.2,-0.2 0.5,-0.2 0.7,0 0.3,0.3 0.6,0.6 0.9,0.9 0.2,0.2 0.2,0.5 0,0.7 -0.1,0 -0.3,0.1 -0.4,0.1 z"
                 id="path6243" />
            </g>
            <g
               id="g6245">
              <path
                 inkscape:connector-curvature="0"
                 d="m 8.8,28.7 c 0,0 0,0 0,0 C 8.2,28.6 7.6,28.5 7.1,28.3 6.8,28.2 6.7,27.9 6.8,27.7 c 0.1,-0.2 0.4,-0.4 0.6,-0.3 0.5,0.2 1,0.3 1.5,0.3 0.3,0 0.5,0.3 0.4,0.6 0,0.2 -0.2,0.4 -0.5,0.4 z m 2.4,0 c -0.2,0 -0.5,-0.2 -0.5,-0.4 0,-0.3 0.1,-0.5 0.4,-0.6 0.2,0 0.3,-0.1 0.5,-0.1 0.3,-0.1 0.5,0.1 0.6,0.4 0.1,0.3 -0.1,0.5 -0.4,0.6 -0.1,0 -0.3,0 -0.6,0.1 0.1,0 0.1,0 0,0 z M 5.1,27.4 C 5,27.4 4.9,27.4 4.9,27.3 4.4,27 4,26.7 3.5,26.4 3.3,26.2 3.2,25.9 3.4,25.7 c 0.2,-0.2 0.5,-0.3 0.7,-0.1 0.4,0.3 0.9,0.6 1.3,0.8 0.2,0.1 0.3,0.4 0.2,0.7 -0.2,0.2 -0.3,0.3 -0.5,0.3 z"
                 id="path6247" />
            </g>
            <g
               id="g6249">
              <path
                 inkscape:connector-curvature="0"
                 d="m 13.1,28.1 c -0.2,0 -0.4,-0.1 -0.5,-0.3 -0.1,-0.3 0,-0.5 0.3,-0.7 0.4,-0.2 0.7,-0.3 1.1,-0.5 0.2,-0.1 0.5,-0.1 0.7,0.2 0.1,0.2 0.1,0.5 -0.2,0.7 -0.4,0.2 -0.8,0.4 -1.2,0.6 0,0 -0.1,0 -0.2,0 z"
                 id="path6251" />
            </g>
          </g>
        </g>
      </g>
    </g>
    <text
       xml:space="preserve"
       style="font-style:normal;font-weight:normal;font-size:40px;line-height:125%;font-family:sans-serif;letter-spacing:0px;word-spacing:0px;display:inline;fill:#000000;fill-opacity:1;stroke:none;stroke-width:1px;stroke-linecap:butt;stroke-linejoin:miter;stroke-opacity:1"
       x="47.999451"
       y="941.28339"
       id="text14942-3"
       sodipodi:linespacing="125%"><tspan
         sodipodi:role="line"
         id="tspan14944-6"
         x="47.999451"
         y="941.28339"
         style="font-size:22.5px">Push Service</tspan></text>
    <text
       xml:space="preserve"
       style="font-style:normal;font-weight:normal;font-size:40px;line-height:125%;font-family:sans-serif;text-align:center;letter-spacing:0px;word-spacing:0px;text-anchor:middle;display:inline;fill:#000000;fill-opacity:1;stroke:none;stroke-width:1px;stroke-linecap:butt;stroke-linejoin:miter;stroke-opacity:1"
       x="572.87128"
       y="927.22089"
       id="text14885"
       sodipodi:linespacing="125%"><tspan
         sodipodi:role="line"
         id="tspan14887"
         x="572.87128"
         y="927.22089"
         style="font-size:22.5px;text-align:center;text-anchor:middle">Push Event in</tspan><tspan
         sodipodi:role="line"
         x="572.87128"
         y="955.34589"
         style="font-size:22.5px;text-align:center;text-anchor:middle"
         id="tspan5165">Service Worker</tspan></text>
    <g
       id="g5167"
       transform="translate(-16,0)">
      <g
         transform="matrix(2.9999998,0,0,3,654.10106,804.27878)"
         id="g14663"
         style="display:inline">
        <path
           id="path14665"
           d="M 14.5,27 C 14.3,27 14,27 13.8,26.9 11.6,26.6 10,25.2 9.4,23 8.4,19.8 8,17.2 8,15 8,12.8 8.4,10.2 9.4,7 10,4.8 11.6,3.4 13.8,3.1 14.2,3 14.7,3 15.2,3.1 17.5,3.4 19,4.8 19.6,7 c 0.9,3.2 1.4,5.8 1.4,8 0,2.2 -0.4,4.8 -1.4,8 l 0,0 C 19,25.2 17.4,26.6 15.2,26.9 15,27 14.7,27 14.5,27 Z m 0,-23 C 14.3,4 14.1,4 14,4.1 12.1,4.4 10.9,5.5 10.4,7.3 9.4,10.3 9,12.9 9,15 c 0,2.1 0.4,4.7 1.3,7.7 0.5,1.9 1.8,2.9 3.6,3.2 0.4,0.1 0.7,0.1 1.1,0 1.9,-0.3 3.1,-1.4 3.6,-3.2 0.9,-3.1 1.3,-5.6 1.3,-7.7 0,-2.1 -0.4,-4.7 -1.3,-7.7 C 18.1,5.4 16.8,4.4 15,4.1 14.9,4 14.7,4 14.5,4 Z"
           inkscape:connector-curvature="0" />
      </g>
      <g
         transform="translate(345.88463,-0.02004364)"
         id="g15255"
         style="display:inline">
        <path
           d="m 296.42969,35.433594 c -15.09614,0 -28.39489,8.58607 -35.80078,21.484375 0.59548,1.047572 1.14999,2.124811 1.6582,3.232422 6.63621,-12.92131 19.40952,-21.716797 34.14258,-21.716797 21.6,0 39,18.9 39,42 0,23.099996 -17.4,41.999996 -39,41.999996 -19.69519,0 -35.89107,-15.71677 -38.59571,-35.999996 l -3.01953,0 c 2.74858,22.048396 20.40464,38.999996 41.61524,38.999996 23.1,0 42,-20.1 42,-44.999996 0,-24.9 -18.9,-45 -42,-45 z"
           id="path14669"
           inkscape:connector-curvature="0"
           transform="translate(56.78587,768.90273)" />
        <g
           transform="matrix(3,0,0,3,308.21644,804.2983)"
           id="g14821"
           style="display:inline">
          <g
             id="g14823"
             style="fill:#000000;fill-opacity:1">
            <path
               inkscape:connector-curvature="0"
               d="M 14.5,27 C 14.3,27 14,27 13.8,26.9 11.6,26.6 10,25.2 9.4,23 8.4,19.8 8,17.2 8,15 8,12.8 8.4,10.2 9.4,7 10,4.8 11.6,3.4 13.8,3.1 14.2,3 14.7,3 15.2,3.1 17.5,3.4 19,4.8 19.6,7 c 0.9,3.2 1.4,5.8 1.4,8 0,2.2 -0.4,4.8 -1.4,8 l 0,0 C 19,25.2 17.4,26.6 15.2,26.9 15,27 14.7,27 14.5,27 Z m 0,-23 C 14.3,4 14.1,4 14,4.1 12.1,4.4 10.9,5.5 10.4,7.3 9.4,10.3 9,12.9 9,15 c 0,2.1 0.4,4.7 1.3,7.7 0.5,1.9 1.8,2.9 3.6,3.2 0.4,0.1 0.7,0.1 1.1,0 1.9,-0.3 3.1,-1.4 3.6,-3.2 0.9,-3.1 1.3,-5.6 1.3,-7.7 0,-2.1 -0.4,-4.7 -1.3,-7.7 C 18.1,5.4 16.8,4.4 15,4.1 14.9,4 14.7,4 14.5,4 Z"
               id="path14825"
               style="fill:#000000;fill-opacity:1" />
          </g>
          <g
             id="g14827" />
        </g>
      </g>
      <path
         inkscape:connector-curvature="0"
         id="path14592"
         d="m 625.67831,804.31632 c -13.64113,0 -25.99949,6.17013 -34.10742,16.04297 0.66115,0.78669 1.29555,1.59628 1.90234,2.42774 7.56132,-9.42187 19.26214,-15.47071 32.20508,-15.47071 17.4,0 33.00039,10.79883 38.40039,27.29883 0.6,1.5 0.90117,3 1.20118,4.5 0.59999,3 0.89843,6 0.89843,9 l 0,4.20117 -55.5,0 c -0.9,0 -1.5,0.6 -1.5,1.5 0,16.8 9.3,25.5 27,25.5 3.9,0 6.30078,-7.8e-4 7.80078,-0.30078 4.8,-0.6 9.30039,-2.4 12.90039,-4.5 l 0,11.40039 c -4.8,2.70001 -10.50078,4.49962 -16.80078,5.09962 -1.5,0.3 -3.30039,0.30078 -5.40039,0.30078 l -0.29883,0 c -4.2,0 -7.5,-0.60117 -10.5,-1.20117 -12.55696,-2.8431 -22.11573,-11.67429 -25.58203,-22.6504 -0.50439,1.14639 -1.04582,2.27361 -1.64062,3.36719 4.3542,10.69033 14.12265,19.21294 26.62305,22.28321 3.29999,0.9 6.89843,1.20117 11.39843,1.20117 l 0.60157,0 c 2.09999,0 3.89921,-7.8e-4 5.69921,-0.30078 6.9,-0.9 13.49961,-3 18.59961,-6.00001 0.3,-0.3 0.59961,-0.59922 0.59961,-1.19922 l 0,-15 c 0,-0.3 -0.29843,-0.90117 -0.89843,-1.20117 -0.60001,-0.3 -0.9,-0.3 -1.5,0 -3.90001,2.4 -8.70079,4.80039 -13.80079,5.40039 -1.8,0.3 -3.90078,0.30078 -7.80078,0.30078 -15.6,0 -23.4,-6.9 -24,-21 l 55.5,0 c 0.9,0 1.5,-0.6 1.5,-1.5 l 0,-5.70117 c 0,-3 -0.29843,-6.29961 -0.89843,-9.59961 -0.60001,-1.5 -0.9,-3.29883 -1.5,-4.79883 -5.70001,-17.7 -22.20157,-29.40039 -41.10157,-29.40039 z m 0,15 c -8.68126,0 -19.67191,1.66128 -29.42383,7.78321 0.50619,0.89192 0.99183,1.79578 1.4375,2.7246 9.23131,-5.89694 19.65695,-7.4073 27.98633,-7.20898 12.6,0 18.9,7.5 19.5,15 l -35.39843,0 0,-0.29883 c 0.59999,-2.7 1.19843,-4.79961 2.39843,-6.59961 0.3,-0.6 0.30117,-1.20078 -0.29883,-1.80078 -0.6,-0.6 -1.20078,-0.60078 -1.80078,-0.30078 -3.9,2.1 -5.69882,4.50117 -7.79882,7.20117 -0.55706,0.55706 -1.11482,1.35515 -1.67188,1.94922 0.31151,1.18109 0.56907,2.38222 0.78516,3.59961 0.37569,-0.57551 0.76869,-1.12738 1.18554,-1.64844 0.6,-0.6 1.20078,-1.50156 1.80078,-2.10156 0.9,-1.2 1.79922,-2.39883 2.69922,-3.29883 0,0.9 -0.29882,1.49961 -0.29882,2.09961 -0.30001,0.9 -0.30157,1.49961 -0.60157,2.09961 0,0.3 7.8e-4,0.90117 0.30078,1.20117 0.3,0.3 0.59922,0.59961 1.19922,0.59961 l 39,0 c 0.9,0 1.5,-0.6 1.5,-1.5 0,-9.6 -7.8,-19.5 -22.5,-19.5 z"
         style="display:inline" />
      <g
         transform="translate(345.88463,-0.02004364)"
         id="g15244"
         style="display:inline">
        <path
           inkscape:connector-curvature="0"
           d="m 154.43359,35.433594 c -14.71076,0 -27.74225,7.018233 -35.94726,17.894531 0.60221,0.923367 1.17311,1.879442 1.71094,2.869141 7.62904,-10.726245 20.14728,-17.763672 34.23632,-17.763672 23.1,0 42,18.9 42,42 0,23.099996 -18.9,41.999996 -42,41.999996 -14.80925,0 -27.88363,-7.77498 -35.36718,-19.4375 -0.58365,0.94382 -1.21115,1.85792 -1.86524,2.75196 8.08894,11.89069 21.72936,19.68554 37.23242,19.68554 24.9,0 45,-20.1 45,-44.999996 0,-24.9 -20.1,-45 -45,-45 z m -44.01562,35.599609 c -0.29894,1.412955 -0.52991,2.851504 -0.69336,4.310547 0.14058,0.496251 0.28966,0.992355 0.4082,1.490234 0.3,-1.8 0.30078,-3.90039 0.30078,-5.40039 0,-0.130892 -0.0138,-0.268493 -0.0156,-0.400391 z"
           id="path14446"
           transform="translate(56.78587,768.90273)" />
        <g
           transform="matrix(3,0,0,3,166.21894,804.33581)"
           id="g14428">
          <path
             inkscape:connector-curvature="0"
             d="M 28,10 15,10 C 14.7,10 14.5,9.8 14.5,9.5 14.5,9.2 14.7,9 15,9 l 13,0 c 0.3,0 0.5,0.2 0.5,0.5 0,0.3 -0.2,0.5 -0.5,0.5 z"
             id="path14430" />
        </g>
        <g
           transform="matrix(3,0,0,3,166.21894,804.33581)"
           id="g14432">
          <path
             inkscape:connector-curvature="0"
             d="M 10,18 C 9.8,18 9.7,17.9 9.6,17.8 L 3.1,6.8 C 2.9,6.5 3,6.2 3.2,6.1 3.5,5.9 3.8,6 3.9,6.2 l 6.5,11 c 0.1,0.2 0.1,0.5 -0.2,0.7 0,0.1 -0.1,0.1 -0.2,0.1 z"
             id="path14434" />
        </g>
        <g
           transform="matrix(3,0,0,3,166.21894,804.33581)"
           id="g14436">
          <path
             inkscape:connector-curvature="0"
             d="m 14,29.5 c -0.1,0 -0.2,0 -0.2,-0.1 -0.2,-0.1 -0.3,-0.4 -0.2,-0.7 l 5,-10 c 0.1,-0.2 0.4,-0.3 0.7,-0.2 0.2,0.1 0.3,0.4 0.2,0.7 l -5,10 c -0.1,0.2 -0.3,0.3 -0.5,0.3 z"
             id="path14438" />
        </g>
        <g
           transform="matrix(3,0,0,3,166.21894,804.33581)"
           id="g14440">
          <path
             inkscape:connector-curvature="0"
             d="m 15,21 c -3.3,0 -6,-2.7 -6,-6 0,-3.3 2.7,-6 6,-6 3.3,0 6,2.7 6,6 0,3.3 -2.7,6 -6,6 z m 0,-11 c -2.8,0 -5,2.2 -5,5 0,2.8 2.2,5 5,5 2.8,0 5,-2.2 5,-5 0,-2.8 -2.2,-5 -5,-5 z"
             id="path14442" />
        </g>
      </g>
      <path
         inkscape:connector-curvature="0"
         d="m 483.10357,892.81633 c -24.3,0 -45,-20.70001 -45,-45.30001 0,-5.4 0.6,-15 4.2,-22.2 -1.2,-3.9 -2.4,-11.4 2.1,-16.2 0.3,-0.3 1.2,-0.6 1.5,-0.3 0.9,0.3 1.2,0.9 1.2,1.5 0,1.5 0.9,4.8 2.4,7.2 0.9,1.5 2.4,3.3 3.3,3.6 1.8,-0.3 6.3,-0.6 8.7,0 1.8,-2.4 5.1,-6.3 11.1,-6.3 0.6,0 1.2,0.3 1.5,0.9 0.3,0.6 0,1.2 -0.3,1.5 -2.4,2.4 -5.7,7.2 -4.8,9.9 0.6,1.8 3.6,2.7 8.1,2.7 l 4.5,0 c 0.6,0 1.2,0.6 1.5,1.2 0.3,0.6 -0.3,1.5 -0.9,1.8 l -10.8,5.4 c 0.3,1.5 0.6,3.6 -0.9,4.8 -0.3,0.3 -0.6,0.3 -1.2,0.3 l 0,0 c -0.3,0 -0.9,-0.3 -1.2,-0.3 0,0 -0.6,0.3 -1.5,0.9 -0.6,0.9 -1.5,2.4 -1.5,3.9 0,5.1 6.6,6 10.5,6 4.8,0 6,-0.9 7.2,-1.5 1.2,-0.6 2.4,-1.5 4.8,-1.5 5.7,0 7.5,6.9 7.5,7.2 0,0.3 0,0.9 -0.3,1.2 -0.3,0.3 -0.6,0.6 -1.2,0.6 -2.7,0 -5.7,1.2 -9,2.7 -2.4,0.9 -4.5,2.1 -7.2,2.7 2.1,0.6 4.2,0.6 7.2,0.6 11.1,0 19.5,-9 19.5,-21 0,-4.8 -0.3,-9.3 -2.7,-12.6 -0.3,-0.6 -0.3,-1.5 0.3,-2.1 0.6,-0.6 1.5,-0.6 2.1,0 4.2,3 7.5,9.3 9,15.6 0.3,-1.8 0.3,-3.9 0.3,-5.4 0,-11.4 -6.9,-26.7 -14.4,-31.8 -0.6,-0.3 -0.9,-1.2 -0.6,-1.8 0.3,-0.6 1.2,-0.9 1.8,-0.9 13.8,4.2 28.2,18.6 28.2,40.5 l 0,3 c 0,24.3 -19.8,43.50001 -45,43.50001 z m -37.8,-66.60001 c -3.6,7.2 -4.2,16.2 -4.2,21.3 0,22.8 19.2,42.30001 42,42.30001 23.7,0 42,-17.70001 42,-40.50001 l 0,-3 c 0,-16.5 -8.7,-28.5 -18.6,-34.2 6,7.8 9.6,19.8 9.6,28.2 0,3 0,7.8 -3.6,10.2 -0.3,0.3 -0.9,0.3 -1.5,0 -0.6,0 -0.9,-0.6 -0.9,-1.2 -0.3,-3.6 -1.5,-7.5 -3.3,-10.8 0.3,2.1 0.3,3.9 0.3,6 0,13.8 -9.6,24 -22.5,24 -5.1,0 -8.7,-0.3 -12.9,-3.3 -0.6,0 -0.6,-0.9 -0.6,-1.5 0,-0.6 0.9,-0.9 1.5,-0.9 3.6,0 7.2,-1.5 10.8,-3 2.7,-1.2 5.4,-2.4 8.1,-2.7 -0.6,-1.5 -1.8,-3.3 -3.9,-3.3 -1.5,0 -2.1,0.3 -3,0.9 -1.5,0.9 -3.3,2.1 -9,2.1 -12.3,0 -13.5,-6.3 -13.5,-9 0,-3.3 2.4,-6.6 5.1,-7.5 0.6,-0.3 1.2,-0.3 1.5,-0.3 0,-0.6 -0.3,-1.5 -0.6,-2.1 -0.3,-0.6 0,-1.5 0.6,-1.8 l 6.3,-3.3 c -5.1,-0.3 -8.1,-1.8 -9,-4.5 -1.2,-3.3 0.6,-6.9 2.4,-9.6 -2.1,0.9 -3.9,3 -4.8,4.5 l -0.3,0.3 c -0.3,0.6 -1.2,0.9 -1.8,0.6 -0.9,-0.3 -6.9,-0.3 -8.4,0 -2.4,0.6 -5.7,-3.9 -6.3,-5.1 -0.6,-1.5 -1.5,-3 -2.1,-4.8 -1.5,4.2 0.3,9.3 0.6,10.2 0.3,0.6 0.3,0.9 0.3,1.2 0,0.3 -0.3,0.3 -0.3,0.6 z"
         id="path14523"
         style="display:inline" />
    </g>
  </g>
  <g
     inkscape:groupmode="layer"
     id="layer3"
     inkscape:label="Opera"
     transform="translate(77.444309,-21.57749)"
     style="display:inline" />
  <style
     id="style9651"
     type="text/css">
	.st0{fill:#231F20;}
</style>
  <style
     id="style11289"
     type="text/css">
	.st0{fill:#231F20;}
</style>
</svg>
