<?xml version="1.0" encoding="UTF-8" standalone="no"?>
<!-- Created with Inkscape (http://www.inkscape.org/) -->

<svg
   xmlns:dc="http://purl.org/dc/elements/1.1/"
   xmlns:cc="http://creativecommons.org/ns#"
   xmlns:rdf="http://www.w3.org/1999/02/22-rdf-syntax-ns#"
   xmlns:svg="http://www.w3.org/2000/svg"
   xmlns="http://www.w3.org/2000/svg"
   xmlns:sodipodi="http://sodipodi.sourceforge.net/DTD/sodipodi-0.dtd"
   xmlns:inkscape="http://www.inkscape.org/namespaces/inkscape"
   width="226.07335mm"
   height="62.217323mm"
   viewBox="0 0 801.04731 220.45508"
   id="svg2"
   version="1.1"
   inkscape:version="0.91 r13725"
   sodipodi:docname="server-to-push-service.svg">
  <defs
     id="defs4" />
  <sodipodi:namedview
     id="base"
     pagecolor="#ffffff"
     bordercolor="#666666"
     borderopacity="1.0"
     inkscape:pageopacity="0.0"
     inkscape:pageshadow="2"
     inkscape:zoom="0.7"
     inkscape:cx="392.87084"
     inkscape:cy="77.832633"
     inkscape:document-units="px"
     inkscape:current-layer="layer1"
     showgrid="false"
     inkscape:window-width="2560"
     inkscape:window-height="1016"
     inkscape:window-x="0"
     inkscape:window-y="27"
     inkscape:window-maximized="1"
     fit-margin-top="10"
     fit-margin-left="10"
     fit-margin-right="10"
     fit-margin-bottom="10" />
  <metadata
     id="metadata7">
    <rdf:RDF>
      <cc:Work
         rdf:about="">
        <dc:format>image/svg+xml</dc:format>
        <dc:type
           rdf:resource="http://purl.org/dc/dcmitype/StillImage" />
        <dc:title></dc:title>
      </cc:Work>
    </rdf:RDF>
  </metadata>
  <g
     inkscape:label="Layer 1"
     inkscape:groupmode="layer"
     id="layer1"
     transform="translate(-28.670506,-768.90273)"
     style="display:inline">
    <g
       transform="matrix(3,0,0,3,212.35146,804.3358)"
       id="g14684">
      <g
         id="g14686" />
    </g>
    <g
       id="g11291"
       transform="matrix(2.88,0,0,2.88,273.95712,806.1358)">
      <g
         id="g11293">
        <circle
           id="circle11295"
           r="0.5"
           cy="15"
           cx="29"
           class="st0"
           style="fill:#231f20" />
      </g>
      <g
         id="g11297">
        <circle
           id="circle11299"
           r="0.5"
           cy="15"
           cx="27"
           class="st0"
           style="fill:#231f20" />
      </g>
      <g
         id="g11301">
        <circle
           id="circle11303"
           r="0.5"
           cy="17"
           cx="27"
           class="st0"
           style="fill:#231f20" />
      </g>
      <g
         id="g11305">
        <circle
           id="circle11307"
           r="0.5"
           cy="13"
           cx="27"
           class="st0"
           style="fill:#231f20" />
      </g>
      <g
         id="g11309">
        <circle
           id="circle11311"
           r="0.5"
           cy="17"
           cx="25"
           class="st0"
           style="fill:#231f20" />
      </g>
      <g
         id="g11313">
        <circle
           id="circle11315"
           r="0.5"
           cy="19"
           cx="25"
           class="st0"
           style="fill:#231f20" />
      </g>
      <g
         id="g11317">
        <circle
           id="circle11319"
           r="0.5"
           cy="13"
           cx="25"
           class="st0"
           style="fill:#231f20" />
      </g>
      <g
         id="g11321">
        <circle
           id="circle11323"
           r="0.5"
           cy="11"
           cx="25"
           class="st0"
           style="fill:#231f20" />
      </g>
      <g
         id="g11325">
        <circle
           id="circle11327"
           r="0.5"
           cy="17"
           cx="23"
           class="st0"
           style="fill:#231f20" />
      </g>
      <g
         id="g11329">
        <circle
           id="circle11331"
           r="0.5"
           cy="19"
           cx="23"
           class="st0"
           style="fill:#231f20" />
      </g>
      <g
         id="g11333">
        <circle
           id="circle11335"
           r="0.5"
           cy="21"
           cx="23"
           class="st0"
           style="fill:#231f20" />
      </g>
      <g
         id="g11337">
        <circle
           id="circle11339"
           r="0.5"
           cy="13"
           cx="23"
           class="st0"
           style="fill:#231f20" />
      </g>
      <g
         id="g11341">
        <circle
           id="circle11343"
           r="0.5"
           cy="11"
           cx="23"
           class="st0"
           style="fill:#231f20" />
      </g>
      <g
         id="g11345">
        <circle
           id="circle11347"
           r="0.5"
           cy="9"
           cx="23"
           class="st0"
           style="fill:#231f20" />
      </g>
      <g
         id="g11349">
        <circle
           id="circle11351"
           r="0.5"
           cy="17"
           cx="21"
           class="st0"
           style="fill:#231f20" />
      </g>
      <g
         id="g11353">
        <circle
           id="circle11355"
           r="0.5"
           cy="19"
           cx="21"
           class="st0"
           style="fill:#231f20" />
      </g>
      <g
         id="g11357">
        <circle
           id="circle11359"
           r="0.5"
           cy="21"
           cx="21"
           class="st0"
           style="fill:#231f20" />
      </g>
      <g
         id="g11361">
        <circle
           id="circle11363"
           r="0.5"
           cy="23"
           cx="21"
           class="st0"
           style="fill:#231f20" />
      </g>
      <g
         id="g11365">
        <circle
           id="circle11367"
           r="0.5"
           cy="13"
           cx="21"
           class="st0"
           style="fill:#231f20" />
      </g>
      <g
         id="g11369">
        <circle
           id="circle11371"
           r="0.5"
           cy="11"
           cx="21"
           class="st0"
           style="fill:#231f20" />
      </g>
      <g
         id="g11373">
        <circle
           id="circle11375"
           r="0.5"
           cy="9"
           cx="21"
           class="st0"
           style="fill:#231f20" />
      </g>
      <g
         id="g11377">
        <circle
           id="circle11379"
           r="0.5"
           cy="7"
           cx="21"
           class="st0"
           style="fill:#231f20" />
      </g>
      <g
         id="g11381">
        <circle
           id="circle11383"
           r="0.5"
           cy="17"
           cx="19"
           class="st0"
           style="fill:#231f20" />
      </g>
      <g
         id="g11385">
        <circle
           id="circle11387"
           r="0.5"
           cy="19"
           cx="19"
           class="st0"
           style="fill:#231f20" />
      </g>
      <g
         id="g11389">
        <circle
           id="circle11391"
           r="0.5"
           cy="21"
           cx="19"
           class="st0"
           style="fill:#231f20" />
      </g>
      <g
         id="g11393">
        <circle
           id="circle11395"
           r="0.5"
           cy="23"
           cx="19"
           class="st0"
           style="fill:#231f20" />
      </g>
      <g
         id="g11397">
        <circle
           id="circle11399"
           r="0.5"
           cy="25"
           cx="19"
           class="st0"
           style="fill:#231f20" />
      </g>
      <g
         id="g11401">
        <circle
           id="circle11403"
           r="0.5"
           cy="13"
           cx="19"
           class="st0"
           style="fill:#231f20" />
      </g>
      <g
         id="g11405">
        <circle
           id="circle11407"
           r="0.5"
           cy="11"
           cx="19"
           class="st0"
           style="fill:#231f20" />
      </g>
      <g
         id="g11409">
        <circle
           id="circle11411"
           r="0.5"
           cy="9"
           cx="19"
           class="st0"
           style="fill:#231f20" />
      </g>
      <g
         id="g11413">
        <circle
           id="circle11415"
           r="0.5"
           cy="7"
           cx="19"
           class="st0"
           style="fill:#231f20" />
      </g>
      <g
         id="g11417">
        <circle
           id="circle11419"
           r="0.5"
           cy="5"
           cx="19"
           class="st0"
           style="fill:#231f20" />
      </g>
      <g
         id="g11421">
        <circle
           id="circle11423"
           r="0.5"
           cy="17"
           cx="17"
           class="st0"
           style="fill:#231f20" />
      </g>
      <g
         id="g11425">
        <circle
           id="circle11427"
           r="0.5"
           cy="19"
           cx="17"
           class="st0"
           style="fill:#231f20" />
      </g>
      <g
         id="g11429">
        <circle
           id="circle11431"
           r="0.5"
           cy="21"
           cx="17"
           class="st0"
           style="fill:#231f20" />
      </g>
      <g
         id="g11433">
        <circle
           id="circle11435"
           r="0.5"
           cy="23"
           cx="17"
           class="st0"
           style="fill:#231f20" />
      </g>
      <g
         id="g11437">
        <circle
           id="circle11439"
           r="0.5"
           cy="25"
           cx="17"
           class="st0"
           style="fill:#231f20" />
      </g>
      <g
         id="g11441">
        <circle
           id="circle11443"
           r="0.5"
           cy="27"
           cx="17"
           class="st0"
           style="fill:#231f20" />
      </g>
      <g
         id="g11445">
        <circle
           id="circle11447"
           r="0.5"
           cy="13"
           cx="17"
           class="st0"
           style="fill:#231f20" />
      </g>
      <g
         id="g11449">
        <circle
           id="circle11451"
           r="0.5"
           cy="11"
           cx="17"
           class="st0"
           style="fill:#231f20" />
      </g>
      <g
         id="g11453">
        <circle
           id="circle11455"
           r="0.5"
           cy="9"
           cx="17"
           class="st0"
           style="fill:#231f20" />
      </g>
      <g
         id="g11457">
        <circle
           id="circle11459"
           r="0.5"
           cy="7"
           cx="17"
           class="st0"
           style="fill:#231f20" />
      </g>
      <g
         id="g11461">
        <circle
           id="circle11463"
           r="0.5"
           cy="5"
           cx="17"
           class="st0"
           style="fill:#231f20" />
      </g>
      <g
         id="g11465">
        <circle
           id="circle11467"
           r="0.5"
           cy="3"
           cx="17"
           class="st0"
           style="fill:#231f20" />
      </g>
      <g
         id="g11469">
        <circle
           id="circle11471"
           r="0.5"
           cy="15"
           cx="25"
           class="st0"
           style="fill:#231f20" />
      </g>
      <g
         id="g11473">
        <circle
           id="circle11475"
           r="0.5"
           cy="15"
           cx="23"
           class="st0"
           style="fill:#231f20" />
      </g>
      <g
         id="g11477">
        <circle
           id="circle11479"
           r="0.5"
           cy="15"
           cx="21"
           class="st0"
           style="fill:#231f20" />
      </g>
      <g
         id="g11481">
        <circle
           id="circle11483"
           r="0.5"
           cy="15"
           cx="19"
           class="st0"
           style="fill:#231f20" />
      </g>
      <g
         id="g11485">
        <circle
           id="circle11487"
           r="0.5"
           cy="15"
           cx="17"
           class="st0"
           style="fill:#231f20" />
      </g>
      <g
         id="g11489">
        <circle
           id="circle11491"
           r="0.5"
           cy="17"
           cx="15"
           class="st0"
           style="fill:#231f20" />
      </g>
      <g
         id="g11493">
        <circle
           id="circle11495"
           r="0.5"
           cy="13"
           cx="15"
           class="st0"
           style="fill:#231f20" />
      </g>
      <g
         id="g11497">
        <circle
           id="circle11499"
           r="0.5"
           cy="15"
           cx="15"
           class="st0"
           style="fill:#231f20" />
      </g>
      <g
         id="g11501">
        <circle
           id="circle11503"
           r="0.5"
           cy="17"
           cx="13"
           class="st0"
           style="fill:#231f20" />
      </g>
      <g
         id="g11505">
        <circle
           id="circle11507"
           r="0.5"
           cy="13"
           cx="13"
           class="st0"
           style="fill:#231f20" />
      </g>
      <g
         id="g11509">
        <circle
           id="circle11511"
           r="0.5"
           cy="15"
           cx="13"
           class="st0"
           style="fill:#231f20" />
      </g>
      <g
         id="g11513">
        <circle
           id="circle11515"
           r="0.5"
           cy="17"
           cx="11"
           class="st0"
           style="fill:#231f20" />
      </g>
      <g
         id="g11517">
        <circle
           id="circle11519"
           r="0.5"
           cy="13"
           cx="11"
           class="st0"
           style="fill:#231f20" />
      </g>
      <g
         id="g11521">
        <circle
           id="circle11523"
           r="0.5"
           cy="15"
           cx="11"
           class="st0"
           style="fill:#231f20" />
      </g>
      <g
         id="g11525">
        <circle
           id="circle11527"
           r="0.5"
           cy="17"
           cx="9"
           class="st0"
           style="fill:#231f20" />
      </g>
      <g
         id="g11529">
        <circle
           id="circle11531"
           r="0.5"
           cy="13"
           cx="9"
           class="st0"
           style="fill:#231f20" />
      </g>
      <g
         id="g11533">
        <circle
           id="circle11535"
           r="0.5"
           cy="15"
           cx="9"
           class="st0"
           style="fill:#231f20" />
      </g>
      <g
         id="g11537">
        <circle
           id="circle11539"
           r="0.5"
           cy="17"
           cx="7"
           class="st0"
           style="fill:#231f20" />
      </g>
      <g
         id="g11541">
        <circle
           id="circle11543"
           r="0.5"
           cy="13"
           cx="7"
           class="st0"
           style="fill:#231f20" />
      </g>
      <g
         id="g11545">
        <circle
           id="circle11547"
           r="0.5"
           cy="15"
           cx="7"
           class="st0"
           style="fill:#231f20" />
      </g>
      <g
         id="g11549">
        <circle
           id="circle11551"
           r="0.5"
           cy="17"
           cx="5"
           class="st0"
           style="fill:#231f20" />
      </g>
      <g
         id="g11553">
        <circle
           id="circle11555"
           r="0.5"
           cy="13"
           cx="5"
           class="st0"
           style="fill:#231f20" />
      </g>
      <g
         id="g11557">
        <circle
           id="circle11559"
           r="0.5"
           cy="15"
           cx="5"
           class="st0"
           style="fill:#231f20" />
      </g>
      <g
         id="g11561">
        <circle
           id="circle11563"
           r="0.5"
           cy="17"
           cx="3"
           class="st0"
           style="fill:#231f20" />
      </g>
      <g
         id="g11565">
        <circle
           id="circle11567"
           r="0.5"
           cy="13"
           cx="3"
           class="st0"
           style="fill:#231f20" />
      </g>
      <g
         id="g11569">
        <circle
           id="circle11571"
           r="0.5"
           cy="15"
           cx="3"
           class="st0"
           style="fill:#231f20" />
      </g>
      <g
         id="g11573">
        <circle
           id="circle11575"
           r="0.5"
           cy="17"
           cx="1"
           class="st0"
           style="fill:#231f20" />
      </g>
      <g
         id="g11577">
        <circle
           id="circle11579"
           r="0.5"
           cy="13"
           cx="1"
           class="st0"
           style="fill:#231f20" />
      </g>
      <g
         id="g11581">
        <circle
           id="circle11583"
           r="0.5"
           cy="15"
           cx="1"
           class="st0"
           style="fill:#231f20" />
      </g>
    </g>
    <text
       xml:space="preserve"
       style="font-style:normal;font-weight:normal;font-size:40px;line-height:125%;font-family:sans-serif;text-align:center;letter-spacing:0px;word-spacing:0px;text-anchor:middle;fill:#000000;fill-opacity:1;stroke:none;stroke-width:1px;stroke-linecap:butt;stroke-linejoin:miter;stroke-opacity:1"
       x="316.23917"
       y="923.58173"
       id="text14946"
       sodipodi:linespacing="125%"><tspan
         sodipodi:role="line"
         x="316.23917"
         y="923.58173"
         id="tspan14950"
         style="font-style:italic;font-variant:normal;font-weight:normal;font-stretch:normal;font-size:20px;font-family:sans-serif;-inkscape-font-specification:'sans-serif Italic'">Web Push Protocol</tspan><tspan
         sodipodi:role="line"
         x="316.23917"
         y="948.58173"
         style="font-style:italic;font-variant:normal;font-weight:normal;font-stretch:normal;font-size:20px;font-family:sans-serif;-inkscape-font-specification:'sans-serif Italic'"
         id="tspan4342">Request</tspan></text>
    <g
       id="g14246"
       transform="matrix(3,0,0,3,83.798254,804.3358)">
      <g
         id="g14248">
        <g
           id="g14250">
          <path
             id="path14252"
             d="M 25.8,30 4.2,30 C 2.3,30 0.7,28.4 0.7,26.5 0.7,24.6 2.3,23 4.2,23 l 21.5,0 c 1.9,0 3.5,1.6 3.5,3.5 0,1.9 -1.5,3.5 -3.4,3.5 z M 4.2,24 c -1.4,0 -2.5,1.1 -2.5,2.5 0,1.4 1.2,2.5 2.5,2.5 l 21.5,0 c 1.4,0 2.5,-1.1 2.5,-2.5 0,-1.4 -1.1,-2.5 -2.4,-2.5 L 4.2,24 Z"
             inkscape:connector-curvature="0" />
        </g>
        <g
           id="g14254">
          <path
             id="path14256"
             d="M 4.8,27 C 4.5,27 4.3,26.8 4.3,26.5 4.3,26.2 4.5,26 4.8,26 l 0,0 c 0.3,0 0.5,0.2 0.5,0.5 C 5.3,26.8 5,27 4.8,27 Z"
             inkscape:connector-curvature="0" />
        </g>
        <g
           id="g14258">
          <path
             id="path14260"
             d="M 6.8,27 C 6.5,27 6.3,26.8 6.3,26.5 6.3,26.2 6.5,26 6.8,26 l 0,0 c 0.3,0 0.5,0.2 0.5,0.5 C 7.3,26.8 7,27 6.8,27 Z"
             inkscape:connector-curvature="0" />
        </g>
        <g
           id="g14262">
          <path
             id="path14264"
             d="M 25.8,24 4.2,24 C 2.3,24 0.7,22.4 0.7,20.5 0.7,18.6 2.3,17 4.2,17 l 21.5,0 c 1.9,0 3.5,1.6 3.5,3.5 0,1.9 -1.5,3.5 -3.4,3.5 z M 4.2,18 c -1.4,0 -2.5,1.1 -2.5,2.5 0,1.4 1.2,2.5 2.5,2.5 l 21.5,0 c 1.4,0 2.5,-1.1 2.5,-2.5 0,-1.4 -1.1,-2.5 -2.4,-2.5 L 4.2,18 Z"
             inkscape:connector-curvature="0" />
        </g>
        <g
           id="g14266">
          <path
             id="path14268"
             d="M 4.8,21 C 4.5,21 4.3,20.8 4.3,20.5 4.3,20.2 4.5,20 4.8,20 l 0,0 c 0.3,0 0.5,0.2 0.5,0.5 0,0.3 -0.2,0.5 -0.5,0.5 z"
             inkscape:connector-curvature="0" />
        </g>
        <g
           id="g14270">
          <path
             id="path14272"
             d="M 6.8,21 C 6.5,21 6.3,20.8 6.3,20.5 6.3,20.2 6.5,20 6.8,20 l 0,0 c 0.3,0 0.5,0.2 0.5,0.5 C 7.3,20.8 7,21 6.8,21 Z"
             inkscape:connector-curvature="0" />
        </g>
        <g
           id="g14274">
          <circle
             id="circle14276"
             r="1"
             cy="26"
             cx="26.299999" />
        </g>
        <g
           id="g14278">
          <circle
             id="circle14280"
             r="1"
             cy="20"
             cx="26.299999" />
        </g>
      </g>
      <g
         id="g14282">
        <path
           id="path14284"
           d="M 21.3,15 9.2,15 c -2.2,0 -4,-1.8 -4,-4 0,-2 1.5,-3.7 3.5,-4 0,-0.1 0,-0.2 0,-0.2 0,-3.8 3,-6.8 6.7,-6.8 3,0 5.6,2 6.4,4.9 2.5,0.3 4.4,2.4 4.4,5 C 26.3,12.7 24,15 21.3,15 Z M 9.2,8 c -1.6,0 -2.9,1.3 -2.9,3 0,1.7 1.3,3 3,3 l 12.1,0 c 2.2,0 4,-1.8 4,-4.1 C 25.4,7.7 23.7,6 21.6,5.9 21.4,5.9 21.2,5.7 21.1,5.5 20.4,2.9 18.1,1 15.4,1 12.3,1 9.7,3.6 9.7,6.8 c 0,0.2 0,0.4 0,0.6 0,0.2 0,0.3 -0.1,0.4 C 9.5,7.9 9.3,8 9.2,8 c 0,0 0,0 0,0 z"
           inkscape:connector-curvature="0" />
      </g>
    </g>
    <text
       xml:space="preserve"
       style="font-style:normal;font-weight:normal;font-size:40px;line-height:125%;font-family:sans-serif;letter-spacing:0px;word-spacing:0px;display:inline;fill:#000000;fill-opacity:1;stroke:none;stroke-width:1px;stroke-linecap:butt;stroke-linejoin:miter;stroke-opacity:1"
       x="64.147522"
       y="925.08563"
       id="text14942"
       sodipodi:linespacing="125%"><tspan
         sodipodi:role="line"
         id="tspan14944"
         x="64.147522"
         y="925.08563"
         style="font-size:22.5px">Your Server</tspan></text>
    <g
       id="g6292"
       transform="translate(-20.093784,3.0439215)">
      <g
         transform="matrix(3,0,0,3,486.42875,801.29188)"
         id="g4635">
        <g
           id="g4637">
          <path
             inkscape:connector-curvature="0"
             d="M 18.4,25 4.5,25 C 2,25 0,22.9 0,20.5 0,18.2 1.7,16.3 4,16.1 4,16 4,15.9 4,15.8 4,11.6 7.4,8.1 11.6,8.1 c 3.5,0 6.5,2.3 7.4,5.6 2.9,0.3 5,2.7 5,5.6 0,3.1 -2.5,5.7 -5.6,5.7 z M 4.5,17 C 2.6,17 1,18.6 1,20.5 1,22.4 2.6,24 4.5,24 l 13.9,0 c 2.6,0 4.7,-2.1 4.7,-4.7 0,-2.5 -2,-4.6 -4.5,-4.7 -0.2,0 -0.4,-0.2 -0.5,-0.4 C 17.4,11.1 14.7,9 11.6,9 8,9.1 5,12 5,15.7 5,16 5,16.2 5,16.4 5,16.6 5,16.7 4.9,16.8 4.8,17 4.6,17 4.5,17 c 0,0 0,0 0,0 z"
             id="path4639" />
        </g>
        <g
           id="g4641">
          <path
             inkscape:connector-curvature="0"
             d="m 25.2,21.9 c -0.2,0 -0.4,-0.2 -0.5,-0.4 0,-0.3 0.1,-0.5 0.4,-0.6 2.2,-0.4 3.9,-2.3 3.9,-4.6 0,-2.5 -2,-4.6 -4.5,-4.7 -0.2,0 -0.4,-0.2 -0.5,-0.4 C 23.3,8.1 20.6,6 17.5,6 16.2,6 14.9,6.4 13.8,7.1 13.6,7.3 13.3,7.2 13.1,7 12.9,6.8 13,6.5 13.2,6.3 14.6,5.5 16,5 17.6,5 c 3.5,0 6.5,2.3 7.4,5.6 2.9,0.3 5,2.7 5,5.6 0,2.8 -2,5.2 -4.8,5.7 0.1,0 0.1,0 0,0 z"
             id="path4643" />
        </g>
      </g>
      <g
         transform="translate(504.2609,840.25791)"
         id="g6223">
        <g
           id="g6225">
          <path
             inkscape:connector-curvature="0"
             d="M 15.5,26.3 C 15.3,26.3 15.1,26.2 15,26 L 12.6,18.7 5.3,16.3 C 5.2,16.2 5,16 5,15.8 5,15.6 5.1,15.4 5.2,15.3 l 24,-14 c 0.2,-0.1 0.4,-0.1 0.5,0 0.2,0.2 0.3,0.4 0.3,0.6 l -4,21 c 0,0.1 -0.1,0.3 -0.2,0.3 -0.1,0.1 -0.3,0.1 -0.4,0 L 16.9,20 16,25.9 c 0,0.2 -0.2,0.4 -0.5,0.4 0,0 0,0 0,0 z m -8.8,-10.6 6.5,2.2 c 0.1,0 0.3,0.2 0.3,0.3 l 1.8,5.5 0.7,-4.5 c 0,-0.2 0.1,-0.3 0.2,-0.4 0.1,-0.1 0.3,-0.1 0.4,0 L 25,22.1 28.7,2.8 6.7,15.7 Z"
             id="path6227" />
        </g>
        <g
           id="g6229">
          <path
             inkscape:connector-curvature="0"
             d="m 16.5,19.8 c -0.1,0 -0.2,0 -0.3,-0.1 C 16,19.5 15.9,19.2 16.1,19 L 25,7 13.4,18.6 c -0.2,0.2 -0.5,0.2 -0.7,0 -0.2,-0.2 -0.2,-0.5 0,-0.7 L 29.1,1.4 c 0.2,-0.2 0.5,-0.2 0.7,0 0.2,0.2 0.2,0.5 0.1,0.7 l -13,17.5 c -0.1,0.1 -0.2,0.2 -0.4,0.2 z"
             id="path6231" />
        </g>
        <g
           id="g6233">
          <path
             inkscape:connector-curvature="0"
             d="m 15.5,26.3 c -0.1,0 -0.2,0 -0.3,-0.1 C 15,26 14.9,25.7 15.1,25.5 l 4,-5 c 0.2,-0.2 0.5,-0.2 0.7,-0.1 0.2,0.2 0.3,0.5 0.1,0.7 l -4,5 c -0.1,0.1 -0.3,0.2 -0.4,0.2 z"
             id="path6235" />
        </g>
        <g
           id="g6237">
          <g
             id="g6239">
            <g
               id="g6241">
              <path
                 inkscape:connector-curvature="0"
                 d="m 1.4,24.7 c -0.1,0 -0.2,0 -0.3,-0.1 C 0.8,24.3 0.5,24 0.2,23.7 0,23.5 0,23.2 0.2,23 c 0.2,-0.2 0.5,-0.2 0.7,0 0.3,0.3 0.6,0.6 0.9,0.9 0.2,0.2 0.2,0.5 0,0.7 -0.1,0 -0.3,0.1 -0.4,0.1 z"
                 id="path6243" />
            </g>
            <g
               id="g6245">
              <path
                 inkscape:connector-curvature="0"
                 d="m 8.8,28.7 c 0,0 0,0 0,0 C 8.2,28.6 7.6,28.5 7.1,28.3 6.8,28.2 6.7,27.9 6.8,27.7 c 0.1,-0.2 0.4,-0.4 0.6,-0.3 0.5,0.2 1,0.3 1.5,0.3 0.3,0 0.5,0.3 0.4,0.6 0,0.2 -0.2,0.4 -0.5,0.4 z m 2.4,0 c -0.2,0 -0.5,-0.2 -0.5,-0.4 0,-0.3 0.1,-0.5 0.4,-0.6 0.2,0 0.3,-0.1 0.5,-0.1 0.3,-0.1 0.5,0.1 0.6,0.4 0.1,0.3 -0.1,0.5 -0.4,0.6 -0.1,0 -0.3,0 -0.6,0.1 0.1,0 0.1,0 0,0 z M 5.1,27.4 C 5,27.4 4.9,27.4 4.9,27.3 4.4,27 4,26.7 3.5,26.4 3.3,26.2 3.2,25.9 3.4,25.7 c 0.2,-0.2 0.5,-0.3 0.7,-0.1 0.4,0.3 0.9,0.6 1.3,0.8 0.2,0.1 0.3,0.4 0.2,0.7 -0.2,0.2 -0.3,0.3 -0.5,0.3 z"
                 id="path6247" />
            </g>
            <g
               id="g6249">
              <path
                 inkscape:connector-curvature="0"
                 d="m 13.1,28.1 c -0.2,0 -0.4,-0.1 -0.5,-0.3 -0.1,-0.3 0,-0.5 0.3,-0.7 0.4,-0.2 0.7,-0.3 1.1,-0.5 0.2,-0.1 0.5,-0.1 0.7,0.2 0.1,0.2 0.1,0.5 -0.2,0.7 -0.4,0.2 -0.8,0.4 -1.2,0.6 0,0 -0.1,0 -0.2,0 z"
                 id="path6251" />
            </g>
          </g>
        </g>
      </g>
    </g>
    <text
       xml:space="preserve"
       style="font-style:normal;font-weight:normal;font-size:40px;line-height:125%;font-family:sans-serif;letter-spacing:0px;word-spacing:0px;display:inline;fill:#000000;fill-opacity:1;stroke:none;stroke-width:1px;stroke-linecap:butt;stroke-linejoin:miter;stroke-opacity:1"
       x="438.91309"
       y="925.48114"
       id="text14942-3"
       sodipodi:linespacing="125%"><tspan
         sodipodi:role="line"
         id="tspan14944-6"
         x="438.91309"
         y="925.48114"
         style="font-size:22.5px">Push Service</tspan></text>
    <g
       id="XMLID_49_"
       transform="matrix(2.4000001,0,0,2.4000001,667.70242,813.3358)">
      <g
         id="XMLID_535_">
        <path
           d="m 20.5,30 -11,0 C 7.6,30 6,28.4 6,26.5 L 6,3.5 C 6,1.6 7.6,0 9.5,0 l 11,0 C 22.4,0 24,1.6 24,3.5 l 0,23 C 24,28.4 22.4,30 20.5,30 Z M 9.5,1 C 8.1,1 7,2.1 7,3.5 l 0,23 C 7,27.9 8.1,29 9.5,29 l 11,0 c 1.4,0 2.5,-1.1 2.5,-2.5 l 0,-23 C 23,2.1 21.9,1 20.5,1 l -11,0 z"
           id="XMLID_522_"
           inkscape:connector-curvature="0" />
      </g>
      <g
         id="XMLID_50_">
        <path
           d="M 23.5,5 6.5,5 C 6.2,5 6,4.8 6,4.5 6,4.2 6.2,4 6.5,4 l 17,0 C 23.8,4 24,4.2 24,4.5 24,4.8 23.8,5 23.5,5 Z"
           id="XMLID_521_"
           inkscape:connector-curvature="0" />
      </g>
      <g
         id="XMLID_51_">
        <path
           d="M 23,25 7,25 C 6.7,25 6.5,24.8 6.5,24.5 6.5,24.2 6.7,24 7,24 l 16,0 c 0.3,0 0.5,0.2 0.5,0.5 0,0.3 -0.2,0.5 -0.5,0.5 z"
           id="XMLID_520_"
           inkscape:connector-curvature="0" />
      </g>
      <g
         id="XMLID_53_">
        <path
           d="m 17.5,3 -5,0 C 12.2,3 12,2.8 12,2.5 12,2.2 12.2,2 12.5,2 l 5,0 C 17.8,2 18,2.2 18,2.5 18,2.8 17.8,3 17.5,3 Z"
           id="XMLID_519_"
           inkscape:connector-curvature="0" />
      </g>
      <g
         id="XMLID_54_">
        <path
           d="M 20.5,3 C 20.2,3 20,2.8 20,2.5 20,2.2 20.2,2 20.5,2 l 0,0 C 20.8,2 21,2.2 21,2.5 21,2.8 20.8,3 20.5,3 Z"
           id="XMLID_518_"
           inkscape:connector-curvature="0" />
      </g>
      <g
         id="XMLID_2_">
        <circle
           r="1"
           cy="27"
           cx="15"
           id="XMLID_517_" />
      </g>
    </g>
    <text
       sodipodi:linespacing="125%"
       id="text4660"
       y="925.48114"
       x="703.15314"
       style="font-style:normal;font-weight:normal;font-size:40px;line-height:125%;font-family:sans-serif;letter-spacing:0px;word-spacing:0px;display:inline;fill:#000000;fill-opacity:1;stroke:none;stroke-width:1px;stroke-linecap:butt;stroke-linejoin:miter;stroke-opacity:1"
       xml:space="preserve"><tspan
         style="font-size:22.5px;text-align:center;text-anchor:middle"
         y="925.48114"
         x="703.15314"
         id="tspan4662"
         sodipodi:role="line">Message Arrives</tspan><tspan
         style="font-size:22.5px;text-align:center;text-anchor:middle"
         y="953.60614"
         x="703.15314"
         sodipodi:role="line"
         id="tspan4664">on the Device</tspan></text>
    <g
       id="g5318"
       transform="matrix(1.3126079,0,0,1.3126079,587.89521,829.61387)">
      <path
         id="path5320"
         d="m 8,29.5 c -0.1,0 -0.3,0 -0.4,-0.1 -0.2,-0.2 -0.2,-0.5 0,-0.7 L 21.3,15 7.6,1.4 C 7.4,1.2 7.4,0.9 7.6,0.7 7.8,0.5 8.1,0.5 8.3,0.7 l 14,14 c 0.2,0.2 0.2,0.5 0,0.7 l -14,14 c 0,0.1 -0.2,0.1 -0.3,0.1 z"
         class="st0"
         inkscape:connector-curvature="0"
         style="fill:#231f20" />
    </g>
  </g>
  <g
     inkscape:groupmode="layer"
     id="layer3"
     inkscape:label="Opera"
     transform="translate(63.548435,-21.59701)"
     style="display:inline" />
  <style
     id="style9651"
     type="text/css">
	.st0{fill:#231F20;}
</style>
  <style
     id="style11289"
     type="text/css">
	.st0{fill:#231F20;}
</style>
  <style
     id="style5316"
     type="text/css">
	.st0{fill:#231F20;}
</style>
</svg>
