<?xml version="1.0" encoding="UTF-8" standalone="no"?>
<!-- Generator: Adobe Illustrator 19.0.0, SVG Export Plug-In . SVG Version: 6.00 Build 0)  -->

<svg
   xmlns:dc="http://purl.org/dc/elements/1.1/"
   xmlns:cc="http://creativecommons.org/ns#"
   xmlns:rdf="http://www.w3.org/1999/02/22-rdf-syntax-ns#"
   xmlns:svg="http://www.w3.org/2000/svg"
   xmlns="http://www.w3.org/2000/svg"
   xmlns:sodipodi="http://sodipodi.sourceforge.net/DTD/sodipodi-0.dtd"
   xmlns:inkscape="http://www.inkscape.org/namespaces/inkscape"
   version="1.1"
   id="Layer_1"
   x="0px"
   y="0px"
   viewBox="0 0 30 30"
   style="enable-background:new 0 0 30 30;"
   xml:space="preserve"
   inkscape:version="0.91 r13725"
   sodipodi:docname="web-push-book-logo.svg"><metadata
     id="metadata37"><rdf:RDF><cc:Work
         rdf:about=""><dc:format>image/svg+xml</dc:format><dc:type
           rdf:resource="http://purl.org/dc/dcmitype/StillImage" /><dc:title></dc:title></cc:Work></rdf:RDF></metadata><defs
     id="defs35" /><sodipodi:namedview
     pagecolor="#ffffff"
     bordercolor="#666666"
     borderopacity="1"
     objecttolerance="10"
     gridtolerance="10"
     guidetolerance="10"
     inkscape:pageopacity="0"
     inkscape:pageshadow="2"
     inkscape:window-width="1447"
     inkscape:window-height="974"
     id="namedview33"
     showgrid="false"
     inkscape:zoom="7.8666667"
     inkscape:cx="15.254237"
     inkscape:cy="14.745763"
     inkscape:window-x="0"
     inkscape:window-y="27"
     inkscape:window-maximized="0"
     inkscape:current-layer="g13" /><g
     id="g3"><g
       id="g5"
       style="fill:#fc0f69;fill-opacity:1"><path
         d="M15.5,26.3c-0.2,0-0.4-0.1-0.5-0.3l-2.4-7.3l-7.3-2.4C5.2,16.2,5,16,5,15.8c0-0.2,0.1-0.4,0.2-0.5l24-14    c0.2-0.1,0.4-0.1,0.5,0C29.9,1.5,30,1.7,30,1.9l-4,21c0,0.1-0.1,0.3-0.2,0.3c-0.1,0.1-0.3,0.1-0.4,0L16.9,20L16,25.9    C16,26.1,15.8,26.3,15.5,26.3C15.5,26.3,15.5,26.3,15.5,26.3z M6.7,15.7l6.5,2.2c0.1,0,0.3,0.2,0.3,0.3l1.8,5.5l0.7-4.5    c0-0.2,0.1-0.3,0.2-0.4c0.1-0.1,0.3-0.1,0.4,0l8.4,3.3l3.7-19.3L6.7,15.7z"
         id="path7"
         style="fill:#fc0f69;fill-opacity:1" /></g><g
       id="g9"
       style="fill:#fc0f69;fill-opacity:1"><path
         d="M16.5,19.8c-0.1,0-0.2,0-0.3-0.1c-0.2-0.2-0.3-0.5-0.1-0.7L25,7L13.4,18.6c-0.2,0.2-0.5,0.2-0.7,0s-0.2-0.5,0-0.7    L29.1,1.4c0.2-0.2,0.5-0.2,0.7,0s0.2,0.5,0.1,0.7l-13,17.5C16.8,19.7,16.7,19.8,16.5,19.8z"
         id="path11"
         style="fill:#fc0f69;fill-opacity:1" /></g><g
       id="g13"><path
         d="M15.5,26.3c-0.1,0-0.2,0-0.3-0.1c-0.2-0.2-0.3-0.5-0.1-0.7l4-5c0.2-0.2,0.5-0.2,0.7-0.1c0.2,0.2,0.3,0.5,0.1,0.7l-4,5    C15.8,26.2,15.6,26.3,15.5,26.3z"
         id="path15"
         style="fill:#fc0f69;fill-opacity:1" /></g><g
       id="g17"
       style="fill:#fc0f69;fill-opacity:1"><g
         id="g19"
         style="fill:#fc0f69;fill-opacity:1"><g
           id="g21"
           style="fill:#fc0f69;fill-opacity:1"><path
             d="M1.4,24.7c-0.1,0-0.2,0-0.3-0.1c-0.3-0.3-0.6-0.6-0.9-0.9c-0.2-0.2-0.2-0.5,0-0.7s0.5-0.2,0.7,0      c0.3,0.3,0.6,0.6,0.9,0.9c0.2,0.2,0.2,0.5,0,0.7C1.7,24.6,1.5,24.7,1.4,24.7z"
             id="path23"
             style="fill:#fc0f69;fill-opacity:1" /></g><g
           id="g25"
           style="fill:#fc0f69;fill-opacity:1"><path
             d="M8.8,28.7C8.8,28.7,8.8,28.7,8.8,28.7c-0.6-0.1-1.2-0.2-1.7-0.4c-0.3-0.1-0.4-0.4-0.3-0.6s0.4-0.4,0.6-0.3      c0.5,0.2,1,0.3,1.5,0.3c0.3,0,0.5,0.3,0.4,0.6C9.3,28.5,9.1,28.7,8.8,28.7z M11.2,28.7c-0.2,0-0.5-0.2-0.5-0.4      c0-0.3,0.1-0.5,0.4-0.6c0.2,0,0.3-0.1,0.5-0.1c0.3-0.1,0.5,0.1,0.6,0.4c0.1,0.3-0.1,0.5-0.4,0.6C11.7,28.6,11.5,28.6,11.2,28.7      C11.3,28.7,11.3,28.7,11.2,28.7z M5.1,27.4c-0.1,0-0.2,0-0.2-0.1c-0.5-0.3-0.9-0.6-1.4-0.9c-0.2-0.2-0.3-0.5-0.1-0.7      c0.2-0.2,0.5-0.3,0.7-0.1c0.4,0.3,0.9,0.6,1.3,0.8c0.2,0.1,0.3,0.4,0.2,0.7C5.4,27.3,5.3,27.4,5.1,27.4z"
             id="path27"
             style="fill:#fc0f69;fill-opacity:1" /></g><g
           id="g29"
           style="fill:#fc0f69;fill-opacity:1"><path
             d="M13.1,28.1c-0.2,0-0.4-0.1-0.5-0.3c-0.1-0.3,0-0.5,0.3-0.7c0.4-0.2,0.7-0.3,1.1-0.5c0.2-0.1,0.5-0.1,0.7,0.2      c0.1,0.2,0.1,0.5-0.2,0.7c-0.4,0.2-0.8,0.4-1.2,0.6C13.3,28.1,13.2,28.1,13.1,28.1z"
             id="path31"
             style="fill:#fc0f69;fill-opacity:1" /></g></g></g></g></svg>