<?xml version="1.0" encoding="UTF-8" standalone="no"?>
<!-- Created with Inkscape (http://www.inkscape.org/) -->

<svg
   xmlns:dc="http://purl.org/dc/elements/1.1/"
   xmlns:cc="http://creativecommons.org/ns#"
   xmlns:rdf="http://www.w3.org/1999/02/22-rdf-syntax-ns#"
   xmlns:svg="http://www.w3.org/2000/svg"
   xmlns="http://www.w3.org/2000/svg"
   xmlns:sodipodi="http://sodipodi.sourceforge.net/DTD/sodipodi-0.dtd"
   xmlns:inkscape="http://www.inkscape.org/namespaces/inkscape"
   width="192.99489mm"
   height="55.678703mm"
   viewBox="0 0 683.84016 197.28674"
   id="svg2"
   version="1.1"
   inkscape:version="0.91 r13725"
   sodipodi:docname="browser-to-server.svg">
  <defs
     id="defs4" />
  <sodipodi:namedview
     id="base"
     pagecolor="#ffffff"
     bordercolor="#666666"
     borderopacity="1.0"
     inkscape:pageopacity="0.0"
     inkscape:pageshadow="2"
     inkscape:zoom="1.4"
     inkscape:cx="428.92146"
     inkscape:cy="109.75335"
     inkscape:document-units="px"
     inkscape:current-layer="layer1"
     showgrid="false"
     inkscape:window-width="2560"
     inkscape:window-height="1016"
     inkscape:window-x="0"
     inkscape:window-y="27"
     inkscape:window-maximized="1"
     fit-margin-top="10"
     fit-margin-left="10"
     fit-margin-right="10"
     fit-margin-bottom="10" />
  <metadata
     id="metadata7">
    <rdf:RDF>
      <cc:Work
         rdf:about="">
        <dc:format>image/svg+xml</dc:format>
        <dc:type
           rdf:resource="http://purl.org/dc/dcmitype/StillImage" />
        <dc:title></dc:title>
      </cc:Work>
    </rdf:RDF>
  </metadata>
  <g
     inkscape:label="Layer 1"
     inkscape:groupmode="layer"
     id="layer1"
     transform="translate(-56.78587,-768.90273)"
     style="display:inline">
    <g
       id="g11291"
       transform="matrix(2.4,0,0,2.4,433.9454,813.3358)">
      <g
         id="g11293">
        <circle
           id="circle11295"
           r="0.5"
           cy="15"
           cx="29"
           class="st0"
           style="fill:#231f20" />
      </g>
      <g
         id="g11297">
        <circle
           id="circle11299"
           r="0.5"
           cy="15"
           cx="27"
           class="st0"
           style="fill:#231f20" />
      </g>
      <g
         id="g11301">
        <circle
           id="circle11303"
           r="0.5"
           cy="17"
           cx="27"
           class="st0"
           style="fill:#231f20" />
      </g>
      <g
         id="g11305">
        <circle
           id="circle11307"
           r="0.5"
           cy="13"
           cx="27"
           class="st0"
           style="fill:#231f20" />
      </g>
      <g
         id="g11309">
        <circle
           id="circle11311"
           r="0.5"
           cy="17"
           cx="25"
           class="st0"
           style="fill:#231f20" />
      </g>
      <g
         id="g11313">
        <circle
           id="circle11315"
           r="0.5"
           cy="19"
           cx="25"
           class="st0"
           style="fill:#231f20" />
      </g>
      <g
         id="g11317">
        <circle
           id="circle11319"
           r="0.5"
           cy="13"
           cx="25"
           class="st0"
           style="fill:#231f20" />
      </g>
      <g
         id="g11321">
        <circle
           id="circle11323"
           r="0.5"
           cy="11"
           cx="25"
           class="st0"
           style="fill:#231f20" />
      </g>
      <g
         id="g11325">
        <circle
           id="circle11327"
           r="0.5"
           cy="17"
           cx="23"
           class="st0"
           style="fill:#231f20" />
      </g>
      <g
         id="g11329">
        <circle
           id="circle11331"
           r="0.5"
           cy="19"
           cx="23"
           class="st0"
           style="fill:#231f20" />
      </g>
      <g
         id="g11333">
        <circle
           id="circle11335"
           r="0.5"
           cy="21"
           cx="23"
           class="st0"
           style="fill:#231f20" />
      </g>
      <g
         id="g11337">
        <circle
           id="circle11339"
           r="0.5"
           cy="13"
           cx="23"
           class="st0"
           style="fill:#231f20" />
      </g>
      <g
         id="g11341">
        <circle
           id="circle11343"
           r="0.5"
           cy="11"
           cx="23"
           class="st0"
           style="fill:#231f20" />
      </g>
      <g
         id="g11345">
        <circle
           id="circle11347"
           r="0.5"
           cy="9"
           cx="23"
           class="st0"
           style="fill:#231f20" />
      </g>
      <g
         id="g11349">
        <circle
           id="circle11351"
           r="0.5"
           cy="17"
           cx="21"
           class="st0"
           style="fill:#231f20" />
      </g>
      <g
         id="g11353">
        <circle
           id="circle11355"
           r="0.5"
           cy="19"
           cx="21"
           class="st0"
           style="fill:#231f20" />
      </g>
      <g
         id="g11357">
        <circle
           id="circle11359"
           r="0.5"
           cy="21"
           cx="21"
           class="st0"
           style="fill:#231f20" />
      </g>
      <g
         id="g11361">
        <circle
           id="circle11363"
           r="0.5"
           cy="23"
           cx="21"
           class="st0"
           style="fill:#231f20" />
      </g>
      <g
         id="g11365">
        <circle
           id="circle11367"
           r="0.5"
           cy="13"
           cx="21"
           class="st0"
           style="fill:#231f20" />
      </g>
      <g
         id="g11369">
        <circle
           id="circle11371"
           r="0.5"
           cy="11"
           cx="21"
           class="st0"
           style="fill:#231f20" />
      </g>
      <g
         id="g11373">
        <circle
           id="circle11375"
           r="0.5"
           cy="9"
           cx="21"
           class="st0"
           style="fill:#231f20" />
      </g>
      <g
         id="g11377">
        <circle
           id="circle11379"
           r="0.5"
           cy="7"
           cx="21"
           class="st0"
           style="fill:#231f20" />
      </g>
      <g
         id="g11381">
        <circle
           id="circle11383"
           r="0.5"
           cy="17"
           cx="19"
           class="st0"
           style="fill:#231f20" />
      </g>
      <g
         id="g11385">
        <circle
           id="circle11387"
           r="0.5"
           cy="19"
           cx="19"
           class="st0"
           style="fill:#231f20" />
      </g>
      <g
         id="g11389">
        <circle
           id="circle11391"
           r="0.5"
           cy="21"
           cx="19"
           class="st0"
           style="fill:#231f20" />
      </g>
      <g
         id="g11393">
        <circle
           id="circle11395"
           r="0.5"
           cy="23"
           cx="19"
           class="st0"
           style="fill:#231f20" />
      </g>
      <g
         id="g11397">
        <circle
           id="circle11399"
           r="0.5"
           cy="25"
           cx="19"
           class="st0"
           style="fill:#231f20" />
      </g>
      <g
         id="g11401">
        <circle
           id="circle11403"
           r="0.5"
           cy="13"
           cx="19"
           class="st0"
           style="fill:#231f20" />
      </g>
      <g
         id="g11405">
        <circle
           id="circle11407"
           r="0.5"
           cy="11"
           cx="19"
           class="st0"
           style="fill:#231f20" />
      </g>
      <g
         id="g11409">
        <circle
           id="circle11411"
           r="0.5"
           cy="9"
           cx="19"
           class="st0"
           style="fill:#231f20" />
      </g>
      <g
         id="g11413">
        <circle
           id="circle11415"
           r="0.5"
           cy="7"
           cx="19"
           class="st0"
           style="fill:#231f20" />
      </g>
      <g
         id="g11417">
        <circle
           id="circle11419"
           r="0.5"
           cy="5"
           cx="19"
           class="st0"
           style="fill:#231f20" />
      </g>
      <g
         id="g11421">
        <circle
           id="circle11423"
           r="0.5"
           cy="17"
           cx="17"
           class="st0"
           style="fill:#231f20" />
      </g>
      <g
         id="g11425">
        <circle
           id="circle11427"
           r="0.5"
           cy="19"
           cx="17"
           class="st0"
           style="fill:#231f20" />
      </g>
      <g
         id="g11429">
        <circle
           id="circle11431"
           r="0.5"
           cy="21"
           cx="17"
           class="st0"
           style="fill:#231f20" />
      </g>
      <g
         id="g11433">
        <circle
           id="circle11435"
           r="0.5"
           cy="23"
           cx="17"
           class="st0"
           style="fill:#231f20" />
      </g>
      <g
         id="g11437">
        <circle
           id="circle11439"
           r="0.5"
           cy="25"
           cx="17"
           class="st0"
           style="fill:#231f20" />
      </g>
      <g
         id="g11441">
        <circle
           id="circle11443"
           r="0.5"
           cy="27"
           cx="17"
           class="st0"
           style="fill:#231f20" />
      </g>
      <g
         id="g11445">
        <circle
           id="circle11447"
           r="0.5"
           cy="13"
           cx="17"
           class="st0"
           style="fill:#231f20" />
      </g>
      <g
         id="g11449">
        <circle
           id="circle11451"
           r="0.5"
           cy="11"
           cx="17"
           class="st0"
           style="fill:#231f20" />
      </g>
      <g
         id="g11453">
        <circle
           id="circle11455"
           r="0.5"
           cy="9"
           cx="17"
           class="st0"
           style="fill:#231f20" />
      </g>
      <g
         id="g11457">
        <circle
           id="circle11459"
           r="0.5"
           cy="7"
           cx="17"
           class="st0"
           style="fill:#231f20" />
      </g>
      <g
         id="g11461">
        <circle
           id="circle11463"
           r="0.5"
           cy="5"
           cx="17"
           class="st0"
           style="fill:#231f20" />
      </g>
      <g
         id="g11465">
        <circle
           id="circle11467"
           r="0.5"
           cy="3"
           cx="17"
           class="st0"
           style="fill:#231f20" />
      </g>
      <g
         id="g11469">
        <circle
           id="circle11471"
           r="0.5"
           cy="15"
           cx="25"
           class="st0"
           style="fill:#231f20" />
      </g>
      <g
         id="g11473">
        <circle
           id="circle11475"
           r="0.5"
           cy="15"
           cx="23"
           class="st0"
           style="fill:#231f20" />
      </g>
      <g
         id="g11477">
        <circle
           id="circle11479"
           r="0.5"
           cy="15"
           cx="21"
           class="st0"
           style="fill:#231f20" />
      </g>
      <g
         id="g11481">
        <circle
           id="circle11483"
           r="0.5"
           cy="15"
           cx="19"
           class="st0"
           style="fill:#231f20" />
      </g>
      <g
         id="g11485">
        <circle
           id="circle11487"
           r="0.5"
           cy="15"
           cx="17"
           class="st0"
           style="fill:#231f20" />
      </g>
      <g
         id="g11489">
        <circle
           id="circle11491"
           r="0.5"
           cy="17"
           cx="15"
           class="st0"
           style="fill:#231f20" />
      </g>
      <g
         id="g11493">
        <circle
           id="circle11495"
           r="0.5"
           cy="13"
           cx="15"
           class="st0"
           style="fill:#231f20" />
      </g>
      <g
         id="g11497">
        <circle
           id="circle11499"
           r="0.5"
           cy="15"
           cx="15"
           class="st0"
           style="fill:#231f20" />
      </g>
      <g
         id="g11501">
        <circle
           id="circle11503"
           r="0.5"
           cy="17"
           cx="13"
           class="st0"
           style="fill:#231f20" />
      </g>
      <g
         id="g11505">
        <circle
           id="circle11507"
           r="0.5"
           cy="13"
           cx="13"
           class="st0"
           style="fill:#231f20" />
      </g>
      <g
         id="g11509">
        <circle
           id="circle11511"
           r="0.5"
           cy="15"
           cx="13"
           class="st0"
           style="fill:#231f20" />
      </g>
      <g
         id="g11513">
        <circle
           id="circle11515"
           r="0.5"
           cy="17"
           cx="11"
           class="st0"
           style="fill:#231f20" />
      </g>
      <g
         id="g11517">
        <circle
           id="circle11519"
           r="0.5"
           cy="13"
           cx="11"
           class="st0"
           style="fill:#231f20" />
      </g>
      <g
         id="g11521">
        <circle
           id="circle11523"
           r="0.5"
           cy="15"
           cx="11"
           class="st0"
           style="fill:#231f20" />
      </g>
      <g
         id="g11525">
        <circle
           id="circle11527"
           r="0.5"
           cy="17"
           cx="9"
           class="st0"
           style="fill:#231f20" />
      </g>
      <g
         id="g11529">
        <circle
           id="circle11531"
           r="0.5"
           cy="13"
           cx="9"
           class="st0"
           style="fill:#231f20" />
      </g>
      <g
         id="g11533">
        <circle
           id="circle11535"
           r="0.5"
           cy="15"
           cx="9"
           class="st0"
           style="fill:#231f20" />
      </g>
      <g
         id="g11537">
        <circle
           id="circle11539"
           r="0.5"
           cy="17"
           cx="7"
           class="st0"
           style="fill:#231f20" />
      </g>
      <g
         id="g11541">
        <circle
           id="circle11543"
           r="0.5"
           cy="13"
           cx="7"
           class="st0"
           style="fill:#231f20" />
      </g>
      <g
         id="g11545">
        <circle
           id="circle11547"
           r="0.5"
           cy="15"
           cx="7"
           class="st0"
           style="fill:#231f20" />
      </g>
      <g
         id="g11549">
        <circle
           id="circle11551"
           r="0.5"
           cy="17"
           cx="5"
           class="st0"
           style="fill:#231f20" />
      </g>
      <g
         id="g11553">
        <circle
           id="circle11555"
           r="0.5"
           cy="13"
           cx="5"
           class="st0"
           style="fill:#231f20" />
      </g>
      <g
         id="g11557">
        <circle
           id="circle11559"
           r="0.5"
           cy="15"
           cx="5"
           class="st0"
           style="fill:#231f20" />
      </g>
      <g
         id="g11561">
        <circle
           id="circle11563"
           r="0.5"
           cy="17"
           cx="3"
           class="st0"
           style="fill:#231f20" />
      </g>
      <g
         id="g11565">
        <circle
           id="circle11567"
           r="0.5"
           cy="13"
           cx="3"
           class="st0"
           style="fill:#231f20" />
      </g>
      <g
         id="g11569">
        <circle
           id="circle11571"
           r="0.5"
           cy="15"
           cx="3"
           class="st0"
           style="fill:#231f20" />
      </g>
      <g
         id="g11573">
        <circle
           id="circle11575"
           r="0.5"
           cy="17"
           cx="1"
           class="st0"
           style="fill:#231f20" />
      </g>
      <g
         id="g11577">
        <circle
           id="circle11579"
           r="0.5"
           cy="13"
           cx="1"
           class="st0"
           style="fill:#231f20" />
      </g>
      <g
         id="g11581">
        <circle
           id="circle11583"
           r="0.5"
           cy="15"
           cx="1"
           class="st0"
           style="fill:#231f20" />
      </g>
    </g>
    <g
       id="g14246"
       transform="matrix(3,0,0,3,595.79826,804.3358)">
      <g
         id="g14248">
        <g
           id="g14250">
          <path
             id="path14252"
             d="M 25.8,30 4.2,30 C 2.3,30 0.7,28.4 0.7,26.5 0.7,24.6 2.3,23 4.2,23 l 21.5,0 c 1.9,0 3.5,1.6 3.5,3.5 0,1.9 -1.5,3.5 -3.4,3.5 z M 4.2,24 c -1.4,0 -2.5,1.1 -2.5,2.5 0,1.4 1.2,2.5 2.5,2.5 l 21.5,0 c 1.4,0 2.5,-1.1 2.5,-2.5 0,-1.4 -1.1,-2.5 -2.4,-2.5 L 4.2,24 Z"
             inkscape:connector-curvature="0" />
        </g>
        <g
           id="g14254">
          <path
             id="path14256"
             d="M 4.8,27 C 4.5,27 4.3,26.8 4.3,26.5 4.3,26.2 4.5,26 4.8,26 l 0,0 c 0.3,0 0.5,0.2 0.5,0.5 C 5.3,26.8 5,27 4.8,27 Z"
             inkscape:connector-curvature="0" />
        </g>
        <g
           id="g14258">
          <path
             id="path14260"
             d="M 6.8,27 C 6.5,27 6.3,26.8 6.3,26.5 6.3,26.2 6.5,26 6.8,26 l 0,0 c 0.3,0 0.5,0.2 0.5,0.5 C 7.3,26.8 7,27 6.8,27 Z"
             inkscape:connector-curvature="0" />
        </g>
        <g
           id="g14262">
          <path
             id="path14264"
             d="M 25.8,24 4.2,24 C 2.3,24 0.7,22.4 0.7,20.5 0.7,18.6 2.3,17 4.2,17 l 21.5,0 c 1.9,0 3.5,1.6 3.5,3.5 0,1.9 -1.5,3.5 -3.4,3.5 z M 4.2,18 c -1.4,0 -2.5,1.1 -2.5,2.5 0,1.4 1.2,2.5 2.5,2.5 l 21.5,0 c 1.4,0 2.5,-1.1 2.5,-2.5 0,-1.4 -1.1,-2.5 -2.4,-2.5 L 4.2,18 Z"
             inkscape:connector-curvature="0" />
        </g>
        <g
           id="g14266">
          <path
             id="path14268"
             d="M 4.8,21 C 4.5,21 4.3,20.8 4.3,20.5 4.3,20.2 4.5,20 4.8,20 l 0,0 c 0.3,0 0.5,0.2 0.5,0.5 0,0.3 -0.2,0.5 -0.5,0.5 z"
             inkscape:connector-curvature="0" />
        </g>
        <g
           id="g14270">
          <path
             id="path14272"
             d="M 6.8,21 C 6.5,21 6.3,20.8 6.3,20.5 6.3,20.2 6.5,20 6.8,20 l 0,0 c 0.3,0 0.5,0.2 0.5,0.5 C 7.3,20.8 7,21 6.8,21 Z"
             inkscape:connector-curvature="0" />
        </g>
        <g
           id="g14274">
          <circle
             id="circle14276"
             r="1"
             cy="26"
             cx="26.299999" />
        </g>
        <g
           id="g14278">
          <circle
             id="circle14280"
             r="1"
             cy="20"
             cx="26.299999" />
        </g>
      </g>
      <g
         id="g14282">
        <path
           id="path14284"
           d="M 21.3,15 9.2,15 c -2.2,0 -4,-1.8 -4,-4 0,-2 1.5,-3.7 3.5,-4 0,-0.1 0,-0.2 0,-0.2 0,-3.8 3,-6.8 6.7,-6.8 3,0 5.6,2 6.4,4.9 2.5,0.3 4.4,2.4 4.4,5 C 26.3,12.7 24,15 21.3,15 Z M 9.2,8 c -1.6,0 -2.9,1.3 -2.9,3 0,1.7 1.3,3 3,3 l 12.1,0 c 2.2,0 4,-1.8 4,-4.1 C 25.4,7.7 23.7,6 21.6,5.9 21.4,5.9 21.2,5.7 21.1,5.5 20.4,2.9 18.1,1 15.4,1 12.3,1 9.7,3.6 9.7,6.8 c 0,0.2 0,0.4 0,0.6 0,0.2 0,0.3 -0.1,0.4 C 9.5,7.9 9.3,8 9.2,8 c 0,0 0,0 0,0 z"
           inkscape:connector-curvature="0" />
      </g>
    </g>
    <g
       transform="matrix(3,0,0,3,212.35146,804.3358)"
       id="g14684">
      <g
         id="g14686" />
    </g>
    <text
       xml:space="preserve"
       style="font-style:normal;font-weight:normal;font-size:40px;line-height:125%;font-family:sans-serif;letter-spacing:0px;word-spacing:0px;fill:#000000;fill-opacity:1;stroke:none;stroke-width:1px;stroke-linecap:butt;stroke-linejoin:miter;stroke-opacity:1"
       x="162.02336"
       y="924.93732"
       id="text14885"
       sodipodi:linespacing="125%"><tspan
         sodipodi:role="line"
         id="tspan14887"
         x="162.02336"
         y="924.93732"
         style="font-size:22.5px">Users Browser</tspan></text>
    <text
       xml:space="preserve"
       style="font-style:normal;font-weight:normal;font-size:40px;line-height:125%;font-family:sans-serif;text-align:center;letter-spacing:0px;word-spacing:0px;text-anchor:middle;fill:#000000;fill-opacity:1;stroke:none;stroke-width:1px;stroke-linecap:butt;stroke-linejoin:miter;stroke-opacity:1"
       x="470.20786"
       y="912.53131"
       id="text14946"
       sodipodi:linespacing="125%"><tspan
         sodipodi:role="line"
         id="tspan14948"
         x="470.20786"
         y="912.53131"
         style="font-style:italic;font-variant:normal;font-weight:normal;font-stretch:normal;font-size:12.5px;font-family:sans-serif;-inkscape-font-specification:'sans-serif Italic'">PushSubscription</tspan><tspan
         sodipodi:role="line"
         x="470.20786"
         y="928.15631"
         id="tspan14950"
         style="font-style:italic;font-variant:normal;font-weight:normal;font-stretch:normal;font-size:12.5px;font-family:sans-serif;-inkscape-font-specification:'sans-serif Italic'">Object</tspan></text>
  </g>
  <g
     inkscape:groupmode="layer"
     id="layer2"
     inkscape:label="Edge"
     transform="translate(35.433071,-21.597009)">
    <g
       transform="matrix(3,0,0,3,110.57561,57.631579)"
       id="g14772">
      <g
         id="g14774" />
    </g>
  </g>
  <g
     inkscape:groupmode="layer"
     id="layer3"
     inkscape:label="Opera"
     transform="translate(35.433071,-21.597009)">
    <g
       id="g14909"
       transform="translate(0,5e-6)">
      <g
         transform="matrix(3,0,0,3,0,57.03008)"
         id="g14519"
         style="display:inline">
        <g
           id="g14521">
          <path
             inkscape:connector-curvature="0"
             d="M 15,29.5 C 6.9,29.5 0,22.6 0,14.4 0,12.6 0.2,9.4 1.4,7 1,5.7 0.6,3.2 2.1,1.6 2.2,1.5 2.5,1.4 2.6,1.5 2.9,1.6 3,1.8 3,2 3,2.5 3.3,3.6 3.8,4.4 4.1,4.9 4.6,5.5 4.9,5.6 5.5,5.5 7,5.4 7.8,5.6 8.4,4.8 9.5,3.5 11.5,3.5 c 0.2,0 0.4,0.1 0.5,0.3 0.1,0.2 0,0.4 -0.1,0.5 -0.8,0.8 -1.9,2.4 -1.6,3.3 0.2,0.6 1.2,0.9 2.7,0.9 l 1.5,0 c 0.2,0 0.4,0.2 0.5,0.4 0.1,0.2 -0.1,0.5 -0.3,0.6 l -3.6,1.8 c 0.1,0.5 0.2,1.2 -0.3,1.6 C 10.7,13 10.6,13 10.4,13 l 0,0 C 10.3,13 10.1,12.9 10,12.9 10,12.9 9.8,13 9.5,13.2 9.3,13.5 9,14 9,14.5 c 0,1.7 2.2,2 3.5,2 1.6,0 2,-0.3 2.4,-0.5 0.4,-0.2 0.8,-0.5 1.6,-0.5 1.9,0 2.5,2.3 2.5,2.4 0,0.1 0,0.3 -0.1,0.4 -0.1,0.1 -0.2,0.2 -0.4,0.2 -0.9,0 -1.9,0.4 -3,0.9 -0.8,0.3 -1.5,0.7 -2.4,0.9 0.7,0.2 1.4,0.2 2.4,0.2 3.7,0 6.5,-3 6.5,-7 C 22,11.9 21.9,10.4 21.1,9.3 21,9.1 21,8.8 21.2,8.6 c 0.2,-0.2 0.5,-0.2 0.7,0 1.4,1 2.5,3.1 3,5.2 C 25,13.2 25,12.5 25,12 25,8.2 22.7,3.1 20.2,1.4 20,1.3 19.9,1 20,0.8 20.1,0.6 20.4,0.5 20.6,0.5 25.2,1.9 30,6.7 30,14 l 0,1 c 0,8.1 -6.6,14.5 -15,14.5 z M 2.4,7.3 C 1.2,9.7 1,12.7 1,14.4 1,22 7.4,28.5 15,28.5 22.9,28.5 29,22.6 29,15 l 0,-1 C 29,8.5 26.1,4.5 22.8,2.6 c 2,2.6 3.2,6.6 3.2,9.4 0,1 0,2.6 -1.2,3.4 -0.1,0.1 -0.3,0.1 -0.5,0 -0.2,0 -0.3,-0.2 -0.3,-0.4 -0.1,-1.2 -0.5,-2.5 -1.1,-3.6 0.1,0.7 0.1,1.3 0.1,2 0,4.6 -3.2,8 -7.5,8 -1.7,0 -2.9,-0.1 -4.3,-1.1 C 11,20.3 11,20 11,19.8 c 0,-0.2 0.3,-0.3 0.5,-0.3 1.2,0 2.4,-0.5 3.6,-1 0.9,-0.4 1.8,-0.8 2.7,-0.9 -0.2,-0.5 -0.6,-1.1 -1.3,-1.1 -0.5,0 -0.7,0.1 -1,0.3 -0.5,0.3 -1.1,0.7 -3,0.7 C 8.4,17.5 8,15.4 8,14.5 8,13.4 8.8,12.3 9.7,12 9.9,11.9 10.1,11.9 10.2,11.9 10.2,11.7 10.1,11.4 10,11.2 9.9,11 10,10.7 10.2,10.6 L 12.3,9.5 C 10.6,9.4 9.6,8.9 9.3,8 8.9,6.9 9.5,5.7 10.1,4.8 9.4,5.1 8.8,5.8 8.5,6.3 L 8.4,6.4 C 8.3,6.6 8,6.7 7.8,6.6 7.5,6.5 5.5,6.5 5,6.6 4.2,6.8 3.1,5.3 2.9,4.9 2.7,4.4 2.4,3.9 2.2,3.3 1.7,4.7 2.3,6.4 2.4,6.7 2.5,6.9 2.5,7 2.5,7.1 2.5,7.2 2.4,7.2 2.4,7.3 Z"
             id="path14523" />
        </g>
      </g>
      <g
         transform="matrix(3,0,0,3,73.999999,117.03009)"
         id="g14426"
         style="display:inline">
        <g
           transform="translate(0,-20.000005)"
           id="g14444">
          <path
             style="fill:#ffffff;fill-opacity:1"
             sodipodi:nodetypes="sssss"
             id="path14682"
             d="M 15,30 C 6.7,30 0,23.3 0,15 0,6.7 6.7,0 15,0 c 8.3,0 15,6.7 15,15 0,8.3 -6.7,15 -15,15 z"
             inkscape:connector-curvature="0" />
          <path
             inkscape:connector-curvature="0"
             d="M 15,30 C 6.7,30 0,23.3 0,15 0,6.7 6.7,0 15,0 23.3,0 30,6.7 30,15 30,23.3 23.3,30 15,30 Z M 15,1 C 7.3,1 1,7.3 1,15 1,22.7 7.3,29 15,29 22.7,29 29,22.7 29,15 29,7.3 22.7,1 15,1 Z"
             id="path14446" />
        </g>
        <g
           transform="translate(0,-20.000005)"
           id="g14428">
          <path
             inkscape:connector-curvature="0"
             d="M 28,10 15,10 C 14.7,10 14.5,9.8 14.5,9.5 14.5,9.2 14.7,9 15,9 l 13,0 c 0.3,0 0.5,0.2 0.5,0.5 0,0.3 -0.2,0.5 -0.5,0.5 z"
             id="path14430" />
        </g>
        <g
           transform="translate(0,-20.000005)"
           id="g14432">
          <path
             inkscape:connector-curvature="0"
             d="M 10,18 C 9.8,18 9.7,17.9 9.6,17.8 L 3.1,6.8 C 2.9,6.5 3,6.2 3.2,6.1 3.5,5.9 3.8,6 3.9,6.2 l 6.5,11 c 0.1,0.2 0.1,0.5 -0.2,0.7 0,0.1 -0.1,0.1 -0.2,0.1 z"
             id="path14434" />
        </g>
        <g
           transform="translate(0,-20.000005)"
           id="g14436">
          <path
             inkscape:connector-curvature="0"
             d="m 14,29.5 c -0.1,0 -0.2,0 -0.2,-0.1 -0.2,-0.1 -0.3,-0.4 -0.2,-0.7 l 5,-10 c 0.1,-0.2 0.4,-0.3 0.7,-0.2 0.2,0.1 0.3,0.4 0.2,0.7 l -5,10 c -0.1,0.2 -0.3,0.3 -0.5,0.3 z"
             id="path14438" />
        </g>
        <g
           transform="translate(0,-20.000005)"
           id="g14440">
          <path
             inkscape:connector-curvature="0"
             d="m 15,21 c -3.3,0 -6,-2.7 -6,-6 0,-3.3 2.7,-6 6,-6 3.3,0 6,2.7 6,6 0,3.3 -2.7,6 -6,6 z m 0,-11 c -2.8,0 -5,2.2 -5,5 0,2.8 2.2,5 5,5 2.8,0 5,-2.2 5,-5 0,-2.8 -2.2,-5 -5,-5 z"
             id="path14442" />
        </g>
      </g>
      <g
         transform="translate(22,0)"
         id="g14867">
        <path
           inkscape:connector-curvature="0"
           d="m 175.17561,147.03007 -0.6,0 c -4.5,0 -8.1,-0.3 -11.4,-1.2 -17.1,-4.2 -29.1,-18.6 -29.1,-34.8 0,-8.1 2.4,-15.599994 6.3,-20.399994 0.6,-0.6 1.2,-1.5 1.8,-2.1 2.1,-2.7 3.9,-5.1 7.8,-7.2 0.6,-0.3 1.2,-0.3 1.8,0.3 0.6,0.6 0.6,1.2 0.3,1.8 -1.2,1.8 -1.8,3.9 -2.4,6.6 l 0,0.3 35.4,0 c -0.6,-7.5 -6.9,-15 -19.5,-15 -12.6,-0.3 -30,3.3 -40.8,20.1 -0.3,0.6 -1.2,0.6 -1.8,0.6 -0.6,-0.3 -1.2,-0.9 -0.9,-1.5 3,-21.6 21.6,-37.5 43.5,-37.5 18.9,0 35.4,11.7 41.1,29.4 0.6,1.5 0.9,3.3 1.5,4.8 0.6,3.3 0.9,6.6 0.9,9.599994 l 0,5.7 c 0,0.9 -0.6,1.5 -1.5,1.5 l -55.5,0 c 0.6,14.1 8.4,21 24,21 3.9,0 6,0 7.8,-0.3 5.1,-0.6 9.9,-3 13.8,-5.4 0.6,-0.3 0.9,-0.3 1.5,0 0.6,0.3 0.9,0.9 0.9,1.2 l 0,15 c 0,0.6 -0.3,0.9 -0.6,1.2 -5.1,3 -11.7,5.1 -18.6,6 -1.8,0.3 -3.6,0.3 -5.7,0.3 z"
           id="path14776"
           sodipodi:nodetypes="sscscccsccccccccsccssscsccsssccs"
           style="fill:#ffffff;fill-opacity:1" />
        <g
           id="g14588"
           transform="matrix(3,0,0,3,120.57561,57.030075)">
          <g
             id="g14590">
            <path
               id="path14592"
               d="M 18.2,30 18,30 C 16.5,30 15.3,29.9 14.2,29.6 8.5,28.2 4.5,23.4 4.5,18 4.5,15.3 5.3,12.8 6.6,11.2 6.8,11 7,10.7 7.2,10.5 7.9,9.6 8.5,8.8 9.8,8.1 10,8 10.2,8 10.4,8.2 c 0.2,0.2 0.2,0.4 0.1,0.6 -0.4,0.6 -0.6,1.3 -0.8,2.2 0,0 0,0 0,0.1 l 11.8,0 C 21.3,8.6 19.2,6.1 15,6.1 10.8,6 5,7.2 1.4,12.8 1.3,13 1,13 0.8,13 0.6,12.9 0.4,12.7 0.5,12.5 1.5,5.3 7.7,0 15,0 c 6.3,0 11.8,3.9 13.7,9.8 0.2,0.5 0.3,1.1 0.5,1.6 0.2,1.1 0.3,2.2 0.3,3.2 l 0,1.9 c 0,0.3 -0.2,0.5 -0.5,0.5 l -18.5,0 c 0.2,4.7 2.8,7 8,7 1.3,0 2,0 2.6,-0.1 1.7,-0.2 3.3,-1 4.6,-1.8 0.2,-0.1 0.3,-0.1 0.5,0 0.2,0.1 0.3,0.3 0.3,0.4 l 0,5 c 0,0.2 -0.1,0.3 -0.2,0.4 -1.7,1 -3.9,1.7 -6.2,2 C 19.5,30 18.9,30 18.2,30 Z M 8.8,10 c -0.3,0.3 -0.6,0.7 -0.9,1.1 -0.2,0.2 -0.4,0.5 -0.6,0.7 -1.2,1.5 -1.9,3.7 -1.9,6.2 0,5 3.7,9.4 9,10.6 1,0.2 2.1,0.4 3.5,0.4 l 0.1,0 c 0.7,0 1.3,0 1.8,-0.1 2.1,-0.2 4,-0.8 5.6,-1.7 l 0,-3.8 c -1.2,0.7 -2.7,1.3 -4.3,1.5 C 20.6,25 19.8,25 18.5,25 12.6,25 9.5,22.1 9.5,16.5 9.5,16.2 9.7,16 10,16 l 18.5,0 0,-1.4 c 0,-1 -0.1,-2 -0.3,-3 C 28.1,11.1 28,10.6 27.8,10.1 26,4.6 20.8,1 15,1 9,1 3.8,4.9 2,10.3 5.8,6 11.1,5 15,5 c 4.9,0 7.5,3.3 7.5,6.5 0,0.3 -0.2,0.5 -0.5,0.5 L 9,12 C 8.8,12 8.7,11.9 8.6,11.8 8.5,11.7 8.5,11.5 8.5,11.4 8.6,11.2 8.6,11 8.7,10.7 8.7,10.5 8.8,10.3 8.8,10 Z"
               inkscape:connector-curvature="0" />
          </g>
        </g>
      </g>
      <g
         transform="translate(40,0)"
         id="g14873">
        <path
           inkscape:connector-curvature="0"
           d="m 220.9975,147.03007 c -23.1,0 -42,-20.1 -42,-45 0,-24.899994 18.9,-44.999994 42,-44.999994 23.1,0 42,20.1 42,44.999994 0,24.9 -18.9,45 -42,45 z"
           id="path14829"
           sodipodi:nodetypes="sssss"
           style="display:inline;fill:#ffffff;fill-opacity:1" />
        <g
           style="display:inline"
           id="g14661"
           transform="matrix(3,0,0,3,175.9975,57.030075)">
          <g
             id="g14663">
            <path
               id="path14665"
               d="M 14.5,27 C 14.3,27 14,27 13.8,26.9 11.6,26.6 10,25.2 9.4,23 8.4,19.8 8,17.2 8,15 8,12.8 8.4,10.2 9.4,7 10,4.8 11.6,3.4 13.8,3.1 14.2,3 14.7,3 15.2,3.1 17.5,3.4 19,4.8 19.6,7 c 0.9,3.2 1.4,5.8 1.4,8 0,2.2 -0.4,4.8 -1.4,8 l 0,0 C 19,25.2 17.4,26.6 15.2,26.9 15,27 14.7,27 14.5,27 Z m 0,-23 C 14.3,4 14.1,4 14,4.1 12.1,4.4 10.9,5.5 10.4,7.3 9.4,10.3 9,12.9 9,15 c 0,2.1 0.4,4.7 1.3,7.7 0.5,1.9 1.8,2.9 3.6,3.2 0.4,0.1 0.7,0.1 1.1,0 1.9,-0.3 3.1,-1.4 3.6,-3.2 0.9,-3.1 1.3,-5.6 1.3,-7.7 0,-2.1 -0.4,-4.7 -1.3,-7.7 C 18.1,5.4 16.8,4.4 15,4.1 14.9,4 14.7,4 14.5,4 Z"
               inkscape:connector-curvature="0" />
          </g>
          <g
             id="g14667">
            <path
               id="path14669"
               d="M 15,30 C 7.3,30 1,23.3 1,15 1,6.7 7.3,0 15,0 22.7,0 29,6.7 29,15 29,23.3 22.7,30 15,30 Z M 15,1 C 7.8,1 2,7.3 2,15 2,22.7 7.8,29 15,29 22.2,29 28,22.7 28,15 28,7.3 22.2,1 15,1 Z"
               inkscape:connector-curvature="0" />
          </g>
        </g>
        <g
           transform="matrix(3,0,0,3,175.9975,56.992575)"
           id="g14821"
           style="display:inline">
          <g
             id="g14823"
             style="fill:#000000;fill-opacity:1">
            <path
               inkscape:connector-curvature="0"
               d="M 14.5,27 C 14.3,27 14,27 13.8,26.9 11.6,26.6 10,25.2 9.4,23 8.4,19.8 8,17.2 8,15 8,12.8 8.4,10.2 9.4,7 10,4.8 11.6,3.4 13.8,3.1 14.2,3 14.7,3 15.2,3.1 17.5,3.4 19,4.8 19.6,7 c 0.9,3.2 1.4,5.8 1.4,8 0,2.2 -0.4,4.8 -1.4,8 l 0,0 C 19,25.2 17.4,26.6 15.2,26.9 15,27 14.7,27 14.5,27 Z m 0,-23 C 14.3,4 14.1,4 14,4.1 12.1,4.4 10.9,5.5 10.4,7.3 9.4,10.3 9,12.9 9,15 c 0,2.1 0.4,4.7 1.3,7.7 0.5,1.9 1.8,2.9 3.6,3.2 0.4,0.1 0.7,0.1 1.1,0 1.9,-0.3 3.1,-1.4 3.6,-3.2 0.9,-3.1 1.3,-5.6 1.3,-7.7 0,-2.1 -0.4,-4.7 -1.3,-7.7 C 18.1,5.4 16.8,4.4 15,4.1 14.9,4 14.7,4 14.5,4 Z"
               id="path14825"
               style="fill:#000000;fill-opacity:1" />
          </g>
          <g
             id="g14827" />
        </g>
      </g>
    </g>
    <text
       xml:space="preserve"
       style="font-style:normal;font-weight:normal;font-size:40px;line-height:125%;font-family:sans-serif;letter-spacing:0px;word-spacing:0px;fill:#000000;fill-opacity:1;stroke:none;stroke-width:1px;stroke-linecap:butt;stroke-linejoin:miter;stroke-opacity:1"
       x="483.92859"
       y="177.77991"
       id="text14942"
       sodipodi:linespacing="125%"><tspan
         sodipodi:role="line"
         id="tspan14944"
         x="483.92859"
         y="177.77991"
         style="font-size:22.5px">Your Server</tspan></text>
  </g>
  <style
     id="style9651"
     type="text/css">
	.st0{fill:#231F20;}
</style>
  <style
     id="style11289"
     type="text/css">
	.st0{fill:#231F20;}
</style>
</svg>
