<?xml version="1.0" encoding="UTF-8" standalone="no"?>
<svg
   xmlns:dc="http://purl.org/dc/elements/1.1/"
   xmlns:cc="http://creativecommons.org/ns#"
   xmlns:rdf="http://www.w3.org/1999/02/22-rdf-syntax-ns#"
   xmlns:svg="http://www.w3.org/2000/svg"
   xmlns="http://www.w3.org/2000/svg"
   xmlns:sodipodi="http://sodipodi.sourceforge.net/DTD/sodipodi-0.dtd"
   xmlns:inkscape="http://www.inkscape.org/namespaces/inkscape"
   width="302.9418"
   height="318.55978"
   viewBox="0 0 302.9418 318.55978"
   class="gf-header__logo"
   id="svg2"
   version="1.1"
   inkscape:version="0.91 r13725"
   sodipodi:docname="gf-logo.svg">
  <metadata
     id="metadata14">
    <rdf:RDF>
      <cc:Work
         rdf:about="">
        <dc:format>image/svg+xml</dc:format>
        <dc:type
           rdf:resource="http://purl.org/dc/dcmitype/StillImage" />
        <dc:title>Gaunt Face</dc:title>
      </cc:Work>
    </rdf:RDF>
  </metadata>
  <defs
     id="defs12" />
  <sodipodi:namedview
     pagecolor="#ffffff"
     bordercolor="#666666"
     borderopacity="1"
     objecttolerance="10"
     gridtolerance="10"
     guidetolerance="10"
     inkscape:pageopacity="0"
     inkscape:pageshadow="2"
     inkscape:window-width="2016"
     inkscape:window-height="1436"
     id="namedview10"
     showgrid="false"
     inkscape:zoom="0.4609375"
     inkscape:cx="-463.6356"
     inkscape:cy="152.00377"
     inkscape:window-x="0"
     inkscape:window-y="55"
     inkscape:window-maximized="0"
     inkscape:current-layer="svg2"
     fit-margin-top="0"
     fit-margin-left="0"
     fit-margin-right="0"
     fit-margin-bottom="0" />
  <title
     id="title4">Gaunt Face</title>
  <g
     id="g6"
     style="fill:#757575;fill-opacity:1;fill-rule:evenodd"
     transform="translate(-103.5,-89.444)">
    <path
       d="m 153.08,121.2 -20.48,0 c -1.41,6.845 0.726,10.147 7.91,8.4 5.247,-1.7 4.326,10.134 1.6,11.69 -13.202,5.707 -29.894,-6.217 -27.83,-20.97 0.836,-15.658 21.625,-24.175 33.2,-13.84 0.04,-6.357 2.157,-14.836 -8.076,-13.474 -20.16,-4.134 -39.477,16.907 -33.574,36.644 4.143,19.848 30.096,28.895 45.893,16.97 3.044,-3.936 0.542,-10.777 1.357,-15.88 l 0,-9.54 z m 119.86,30.323 c 5.433,-0.002 13.396,1.684 7.802,-5.682 L 257.34,89.444 231.5,151.524 c 5.45,-0.02 12.094,1.717 12.506,-5.72 0.732,-6.928 5.437,-8.01 11.562,-7 4.434,1.25 12.636,-3.048 13.627,3.27 l 3.745,9.45 z m -22.8,-21.04 7.2,-18.08 7.2,18.08 -14.4,0 z m 134.04,21.04 c 12.834,0.892 24.14,-10.81 22,-23.675 l 0,-35.685 c -6.14,-0.675 -11.634,-0.706 -9.36,7.03 -0.473,12.258 1.023,24.765 -0.9,36.84 -6.637,12.178 -28.474,5.28 -24.46,-9.064 l 0,-34.807 c -6.138,-0.7 -11.544,-0.67 -9.28,7.03 0.5,13.022 -1.142,26.28 1.114,39.112 2.85,8.65 12.2,13.353 20.886,13.218 z m -232.3,130.72 0,-62.08 c -6.14,-0.675 -11.634,-0.706 -9.36,7.03 l 0,31.05 -37.28,-40.88 0,62.16 c 6.138,0.702 11.544,0.67 9.28,-7.03 l 0,-31.13 37.36,40.88 z m 124.52,-62.08 -42,0 c -1.44,6.85 0.777,10.043 7.91,8.32 6.844,-1.404 10.16,0.72 8.41,7.91 l 0,43.13 c 6.14,0.676 11.634,0.707 9.36,-7.03 l 0,-44.01 16.32,0 0,-8.32 z m 99.62,8.32 26.4,0 c 1.44,-6.85 -0.777,-10.042 -7.91,-8.32 l -27.77,0 0,59.36 c 6.138,0.702 11.544,0.67 9.28,-7.03 l 0,-19.77 21.68,0 c 1.41,-6.845 -0.726,-10.147 -7.91,-8.4 -4.155,-1.314 -13.838,2.9 -13.77,-2.636 l 0,-13.204 z m -231.08,179.04 c 5.433,-0.003 13.396,1.684 7.802,-5.682 l -23.402,-56.397 -25.84,62.08 c 5.45,-0.02 12.094,1.717 12.506,-5.72 0.732,-6.928 5.437,-8.01 11.562,-7 4.434,1.25 12.636,-3.048 13.627,3.27 l 3.745,9.45 z m -22.8,-21.04 7.2,-18.08 7.2,18.08 -14.4,0 z m 157.7,3.997 c -9.48,14.163 -33.87,8.657 -36.402,-8.155 -4.096,-16.22 15.8,-30.812 30.026,-21.806 4.878,5.112 5.053,-15.23 -4.104,-11.32 -21.07,-5.257 -41.618,17.446 -34.284,37.884 5.013,18.4 29.2,27.08 44.764,16.036 l 0,-12.64 z m 96.18,-33.997 26.32,0 c 1.44,-6.85 -0.777,-10.042 -7.91,-8.32 l -27.69,0 0,59.36 35.6,0 c 1.41,-6.845 -0.726,-10.147 -7.91,-8.4 l -18.41,0 0,-18.4 21.68,0 c 1.41,-6.845 -0.726,-10.147 -7.91,-8.4 -4.155,-1.314 -13.838,2.9 -13.77,-2.636 l 0,-13.204 z"
       id="path8"
       style="fill:#757575;fill-opacity:1"
       inkscape:connector-curvature="0" />
  </g>
</svg>
