<?xml version="1.0" encoding="UTF-8" standalone="no"?>
<!-- Created with Inkscape (http://www.inkscape.org/) -->

<svg
   xmlns:dc="http://purl.org/dc/elements/1.1/"
   xmlns:cc="http://creativecommons.org/ns#"
   xmlns:rdf="http://www.w3.org/1999/02/22-rdf-syntax-ns#"
   xmlns:svg="http://www.w3.org/2000/svg"
   xmlns="http://www.w3.org/2000/svg"
   xmlns:sodipodi="http://sodipodi.sourceforge.net/DTD/sodipodi-0.dtd"
   xmlns:inkscape="http://www.inkscape.org/namespaces/inkscape"
   width="233.75461mm"
   height="62.288139mm"
   viewBox="0 0 828.26436 220.70601"
   id="svg2"
   version="1.1"
   inkscape:version="0.91 r13725"
   sodipodi:docname="browser-to-server.svg">
  <defs
     id="defs4" />
  <sodipodi:namedview
     id="base"
     pagecolor="#ffffff"
     bordercolor="#666666"
     borderopacity="1.0"
     inkscape:pageopacity="0.0"
     inkscape:pageshadow="2"
     inkscape:zoom="0.98994949"
     inkscape:cx="490.68517"
     inkscape:cy="120.94071"
     inkscape:document-units="px"
     inkscape:current-layer="layer1"
     showgrid="false"
     inkscape:window-width="2560"
     inkscape:window-height="1016"
     inkscape:window-x="0"
     inkscape:window-y="27"
     inkscape:window-maximized="1"
     fit-margin-top="10"
     fit-margin-left="10"
     fit-margin-right="10"
     fit-margin-bottom="10" />
  <metadata
     id="metadata7">
    <rdf:RDF>
      <cc:Work
         rdf:about="">
        <dc:format>image/svg+xml</dc:format>
        <dc:type
           rdf:resource="http://purl.org/dc/dcmitype/StillImage" />
        <dc:title></dc:title>
      </cc:Work>
    </rdf:RDF>
  </metadata>
  <g
     inkscape:label="Layer 1"
     inkscape:groupmode="layer"
     id="layer1"
     transform="translate(6.7737996,-768.90273)"
     style="display:inline">
    <g
       transform="matrix(3,0,0,3,212.35146,804.3358)"
       id="g14684">
      <g
         id="g14686" />
    </g>
    <g
       id="g14246"
       transform="matrix(3,0,0,3,614.68894,804.3358)">
      <g
         id="g14248">
        <g
           id="g14250">
          <path
             id="path14252"
             d="M 25.8,30 4.2,30 C 2.3,30 0.7,28.4 0.7,26.5 0.7,24.6 2.3,23 4.2,23 l 21.5,0 c 1.9,0 3.5,1.6 3.5,3.5 0,1.9 -1.5,3.5 -3.4,3.5 z M 4.2,24 c -1.4,0 -2.5,1.1 -2.5,2.5 0,1.4 1.2,2.5 2.5,2.5 l 21.5,0 c 1.4,0 2.5,-1.1 2.5,-2.5 0,-1.4 -1.1,-2.5 -2.4,-2.5 L 4.2,24 Z"
             inkscape:connector-curvature="0" />
        </g>
        <g
           id="g14254">
          <path
             id="path14256"
             d="M 4.8,27 C 4.5,27 4.3,26.8 4.3,26.5 4.3,26.2 4.5,26 4.8,26 l 0,0 c 0.3,0 0.5,0.2 0.5,0.5 C 5.3,26.8 5,27 4.8,27 Z"
             inkscape:connector-curvature="0" />
        </g>
        <g
           id="g14258">
          <path
             id="path14260"
             d="M 6.8,27 C 6.5,27 6.3,26.8 6.3,26.5 6.3,26.2 6.5,26 6.8,26 l 0,0 c 0.3,0 0.5,0.2 0.5,0.5 C 7.3,26.8 7,27 6.8,27 Z"
             inkscape:connector-curvature="0" />
        </g>
        <g
           id="g14262">
          <path
             id="path14264"
             d="M 25.8,24 4.2,24 C 2.3,24 0.7,22.4 0.7,20.5 0.7,18.6 2.3,17 4.2,17 l 21.5,0 c 1.9,0 3.5,1.6 3.5,3.5 0,1.9 -1.5,3.5 -3.4,3.5 z M 4.2,18 c -1.4,0 -2.5,1.1 -2.5,2.5 0,1.4 1.2,2.5 2.5,2.5 l 21.5,0 c 1.4,0 2.5,-1.1 2.5,-2.5 0,-1.4 -1.1,-2.5 -2.4,-2.5 L 4.2,18 Z"
             inkscape:connector-curvature="0" />
        </g>
        <g
           id="g14266">
          <path
             id="path14268"
             d="M 4.8,21 C 4.5,21 4.3,20.8 4.3,20.5 4.3,20.2 4.5,20 4.8,20 l 0,0 c 0.3,0 0.5,0.2 0.5,0.5 0,0.3 -0.2,0.5 -0.5,0.5 z"
             inkscape:connector-curvature="0" />
        </g>
        <g
           id="g14270">
          <path
             id="path14272"
             d="M 6.8,21 C 6.5,21 6.3,20.8 6.3,20.5 6.3,20.2 6.5,20 6.8,20 l 0,0 c 0.3,0 0.5,0.2 0.5,0.5 C 7.3,20.8 7,21 6.8,21 Z"
             inkscape:connector-curvature="0" />
        </g>
        <g
           id="g14274">
          <circle
             id="circle14276"
             r="1"
             cy="26"
             cx="26.299999" />
        </g>
        <g
           id="g14278">
          <circle
             id="circle14280"
             r="1"
             cy="20"
             cx="26.299999" />
        </g>
      </g>
      <g
         id="g14282">
        <path
           id="path14284"
           d="M 21.3,15 9.2,15 c -2.2,0 -4,-1.8 -4,-4 0,-2 1.5,-3.7 3.5,-4 0,-0.1 0,-0.2 0,-0.2 0,-3.8 3,-6.8 6.7,-6.8 3,0 5.6,2 6.4,4.9 2.5,0.3 4.4,2.4 4.4,5 C 26.3,12.7 24,15 21.3,15 Z M 9.2,8 c -1.6,0 -2.9,1.3 -2.9,3 0,1.7 1.3,3 3,3 l 12.1,0 c 2.2,0 4,-1.8 4,-4.1 C 25.4,7.7 23.7,6 21.6,5.9 21.4,5.9 21.2,5.7 21.1,5.5 20.4,2.9 18.1,1 15.4,1 12.3,1 9.7,3.6 9.7,6.8 c 0,0.2 0,0.4 0,0.6 0,0.2 0,0.3 -0.1,0.4 C 9.5,7.9 9.3,8 9.2,8 c 0,0 0,0 0,0 z"
           inkscape:connector-curvature="0" />
      </g>
    </g>
    <text
       xml:space="preserve"
       style="font-style:normal;font-weight:normal;font-size:40px;line-height:125%;font-family:sans-serif;text-align:center;letter-spacing:0px;word-spacing:0px;text-anchor:middle;fill:#000000;fill-opacity:1;stroke:none;stroke-width:1px;stroke-linecap:butt;stroke-linejoin:miter;stroke-opacity:1"
       x="660.20789"
       y="925.0155"
       id="text14946"
       sodipodi:linespacing="125%"><tspan
         sodipodi:role="line"
         id="tspan14948"
         x="660.20789"
         y="925.0155"
         style="font-style:italic;font-variant:normal;font-weight:normal;font-stretch:normal;font-size:20px;font-family:sans-serif;-inkscape-font-specification:'sans-serif Italic'">3. Send PushSubscription</tspan><tspan
         sodipodi:role="line"
         x="660.20789"
         y="950.0155"
         id="tspan14950"
         style="font-style:italic;font-variant:normal;font-weight:normal;font-stretch:normal;font-size:20px;font-family:sans-serif;-inkscape-font-specification:'sans-serif Italic'">to Your Server</tspan></text>
    <g
       id="g5207">
      <g
         transform="matrix(3.0000002,0,0,3.0000002,87.95614,804.1858)"
         id="g4380">
        <g
           id="g4382">
          <path
             inkscape:connector-curvature="0"
             d="m 15,24.3 c -0.6,0 -1.2,-0.2 -1.8,-0.6 C 12.8,23.5 9.7,21.3 7.2,19.2 6.8,18.9 6.2,18.3 5.7,17.7 5.3,17.3 4.9,16.9 4.7,16.7 4.5,16.5 4.5,16.2 4.6,16 c 0.2,-0.2 0.5,-0.2 0.7,-0.1 0.2,0.2 0.6,0.6 1.1,1.1 0.5,0.5 1.1,1.1 1.4,1.4 2.5,2.1 5.6,4.2 6,4.5 0.4,0.3 0.8,0.4 1.2,0.4 0.3,0 1,0 1,-0.2 0.1,-0.2 0.2,-0.3 0.4,-0.3 0.2,0 0.3,0 0.5,0.1 0.1,0.1 0.3,0.3 0.7,0.1 0.5,-0.2 0.9,-0.8 1,-1.3 0,-0.2 0.1,-0.4 0.3,-0.4 0.2,-0.1 0.4,0 0.5,0.1 0.2,0.2 0.6,0.1 1,0 0.4,-0.2 0.8,-0.6 0.7,-1 0,-0.2 0.1,-0.4 0.2,-0.5 0.2,-0.1 0.4,-0.1 0.5,0 0.3,0.2 0.9,0.2 1.2,-0.1 0.2,-0.2 0.3,-0.4 0.1,-0.8 -0.5,-1 -3,-3.1 -4.9,-4.8 -1,-0.9 -2,-1.7 -2.7,-2.4 -0.3,0.1 -0.5,0.3 -0.6,0.4 -0.3,0.2 -0.5,0.4 -1,0.5 -0.9,1.2 -2,1.5 -3.4,1 -0.7,-0.2 -0.9,-0.7 -1,-1 -0.3,-1.2 0.9,-2.9 1.8,-3.8 2.1,-2.1 3.6,-2.9 6.6,-1.6 2.5,1.1 4.5,2 4.5,2 0.3,0.1 0.4,0.4 0.3,0.7 -0.1,0.3 -0.4,0.4 -0.7,0.3 0,0 -2,-0.9 -4.5,-2 -2.2,-1 -3.3,-0.7 -5.4,1.4 -0.8,0.8 -1.7,2.2 -1.5,2.9 0,0.1 0.1,0.2 0.3,0.3 1.4,0.4 2,-0.1 2.4,-0.8 0.1,-0.1 0.2,-0.2 0.4,-0.2 0.3,0 0.4,-0.1 0.7,-0.3 0.3,-0.2 0.6,-0.4 1.2,-0.7 0.2,-0.1 0.4,0 0.5,0.1 0.7,0.7 1.8,1.6 2.9,2.5 2.3,1.9 4.6,3.9 5.2,5.1 0.4,0.7 0.2,1.5 -0.3,2 -0.5,0.4 -1.1,0.5 -1.7,0.4 -0.2,0.5 -0.6,1 -1.2,1.3 -0.5,0.2 -1,0.3 -1.4,0.2 -0.3,0.6 -0.8,1.2 -1.4,1.5 -0.4,0.2 -0.9,0.2 -1.3,0 -0.7,0.2 -1.4,0.3 -1.9,0.3 z"
             id="path4384" />
        </g>
        <g
           id="g4386">
          <path
             inkscape:connector-curvature="0"
             d="m 12.5,8.8 -6,0 C 6.2,8.8 6,8.5 6,8.3 6,8.1 6.2,7.8 6.5,7.8 l 6,0 c 0.3,0 0.5,0.2 0.5,0.5 0,0.3 -0.2,0.5 -0.5,0.5 z"
             id="path4388" />
        </g>
        <g
           id="g4390">
          <path
             inkscape:connector-curvature="0"
             d="m 23.5,19.3 c -0.2,0 -0.3,-0.1 -0.4,-0.2 -0.2,-0.2 -0.1,-0.5 0.1,-0.7 l 1.5,-1 c 0.2,-0.2 0.5,-0.1 0.7,0.1 0.2,0.2 0.1,0.5 -0.1,0.7 l -1.5,1 c -0.1,0 -0.2,0.1 -0.3,0.1 z"
             id="path4392" />
        </g>
        <g
           id="g4394">
          <path
             inkscape:connector-curvature="0"
             d="m 21.5,20.8 c -0.1,0 -0.2,0 -0.3,-0.1 -0.7,-0.5 -3.7,-3.7 -4.1,-4 -0.2,-0.2 -0.2,-0.5 0,-0.7 0.2,-0.2 0.5,-0.2 0.7,0 0.9,1 3.4,3.6 3.9,4 0.2,0.2 0.3,0.5 0.1,0.7 0,0 -0.2,0.1 -0.3,0.1 z"
             id="path4396" />
        </g>
        <g
           id="g4398">
          <path
             inkscape:connector-curvature="0"
             d="m 19,22.3 c -0.1,0 -0.2,0 -0.3,-0.1 -0.9,-0.7 -3.2,-3.2 -3.6,-3.6 -0.2,-0.2 -0.2,-0.5 0,-0.7 0.2,-0.2 0.5,-0.2 0.7,0 0.4,0.5 2.7,2.8 3.4,3.4 0.2,0.2 0.3,0.5 0.1,0.7 0,0.2 -0.2,0.3 -0.3,0.3 z"
             id="path4400" />
        </g>
        <g
           id="g4402">
          <path
             inkscape:connector-curvature="0"
             d="m 16.5,23.8 c -0.1,0 -0.2,0 -0.3,-0.1 -0.8,-0.7 -2.3,-2.2 -3,-3 -0.2,-0.2 -0.2,-0.5 0,-0.7 0.2,-0.2 0.5,-0.2 0.7,0 0.8,0.8 2.2,2.3 3,3 0.2,0.2 0.2,0.5 0.1,0.7 -0.2,0 -0.4,0.1 -0.5,0.1 z"
             id="path4404" />
        </g>
        <g
           id="g4406">
          <path
             inkscape:connector-curvature="0"
             d="M 0.5,17.8 C 0.2,17.8 0,17.6 0,17.3 L 0,6.3 C 0,6 0.2,5.8 0.5,5.8 1.4,5.8 5.8,5.9 6.9,6.9 7,7 7,7.1 7,7.3 6.7,10.5 5.1,17.1 5,17.4 c -0.1,0.2 -0.3,0.4 -0.5,0.4 0,0 -2.4,0 -4,0 z m 0.5,-11 0,10 c 1.1,0 2.5,0 3.1,0 C 4.4,15.4 5.7,10.3 6,7.5 5.2,7 2.8,6.8 1,6.8 Z"
             id="path4408" />
        </g>
        <g
           id="g4410">
          <path
             inkscape:connector-curvature="0"
             d="m 29.5,18.8 -4,0 C 25.3,18.8 25.1,18.6 25,18.4 24.5,16.7 21.9,9.8 21.1,8.5 21,8.4 21,8.2 21,8.1 21,8 21.2,7.8 21.3,7.8 c 0.1,0 3.3,-1 8.2,-1 0.3,0 0.5,0.2 0.5,0.5 l 0,11 c 0,0.2 -0.2,0.5 -0.5,0.5 z m -3.6,-1 3.1,0 0,-10 c -3.3,0 -5.7,0.5 -6.8,0.8 1.1,2 3.1,7.3 3.7,9.2 z"
             id="path4412" />
        </g>
      </g>
      <text
         sodipodi:linespacing="125%"
         id="text14946-3"
         y="925.0155"
         x="133.1124"
         style="font-style:normal;font-weight:normal;font-size:40px;line-height:125%;font-family:sans-serif;text-align:center;letter-spacing:0px;word-spacing:0px;text-anchor:middle;display:inline;fill:#000000;fill-opacity:1;stroke:none;stroke-width:1px;stroke-linecap:butt;stroke-linejoin:miter;stroke-opacity:1"
         xml:space="preserve"><tspan
           style="font-style:italic;font-variant:normal;font-weight:normal;font-stretch:normal;font-size:20px;font-family:sans-serif;-inkscape-font-specification:'sans-serif Italic'"
           id="tspan14950-7"
           y="925.0155"
           x="133.1124"
           sodipodi:role="line">1. Get Permission to</tspan><tspan
           id="tspan4460"
           style="font-style:italic;font-variant:normal;font-weight:normal;font-stretch:normal;font-size:20px;font-family:sans-serif;-inkscape-font-specification:'sans-serif Italic'"
           y="950.0155"
           x="133.1124"
           sodipodi:role="line">Send Push Messages</tspan></text>
    </g>
    <g
       id="g5229"
       transform="translate(-13.999996,0)">
      <text
         sodipodi:linespacing="125%"
         id="text14946-3-5"
         y="925.0155"
         x="399.7861"
         style="font-style:normal;font-weight:normal;font-size:40px;line-height:125%;font-family:sans-serif;text-align:center;letter-spacing:0px;word-spacing:0px;text-anchor:middle;display:inline;fill:#000000;fill-opacity:1;stroke:none;stroke-width:1px;stroke-linecap:butt;stroke-linejoin:miter;stroke-opacity:1"
         xml:space="preserve"><tspan
           id="tspan4742"
           style="font-style:italic;font-variant:normal;font-weight:normal;font-stretch:normal;font-size:20px;font-family:sans-serif;-inkscape-font-specification:'sans-serif Italic'"
           y="925.0155"
           x="399.7861"
           sodipodi:role="line">2. Get PushSubscription</tspan></text>
      <g
         transform="matrix(2.6666668,0,0,2.6666668,359.1367,809.3358)"
         id="g4747">
        <g
           id="g4749">
          <path
             inkscape:connector-curvature="0"
             d="m 29.5,30 -10,0 C 19.2,30 19,29.8 19,29.5 l 0,-8 C 19,21.2 19.2,21 19.5,21 l 10,0 c 0.3,0 0.5,0.2 0.5,0.5 l 0,8 c 0,0.3 -0.2,0.5 -0.5,0.5 z m -9.5,-1 9,0 0,-7 -9,0 0,7 z"
             id="path4751" />
        </g>
        <g
           id="g4753">
          <path
             inkscape:connector-curvature="0"
             d="M 24.5,27 C 24.2,27 24,26.8 24,26.5 l 0,-2 c 0,-0.3 0.2,-0.5 0.5,-0.5 0.3,0 0.5,0.2 0.5,0.5 l 0,2 c 0,0.3 -0.2,0.5 -0.5,0.5 z"
             id="path4755" />
        </g>
        <g
           id="g4757">
          <g
             id="g4759">
            <path
               inkscape:connector-curvature="0"
               d="m 0.5,30 c 0,0 -0.1,0 -0.1,0 C 0.1,29.9 0,29.7 0,29.4 l 0.7,-3 C 1,25 2.1,23.8 3.4,23.4 l 5.9,-1.9 c 1.4,-0.6 2,-2.9 2.1,-3.7 C 10.5,16.9 9.6,15.6 9.6,14.4 9.6,13.9 9.4,13.7 9.3,13.6 9.1,13.6 9,13.5 9,13.3 9,13.2 8.4,11.6 8.4,10.6 c 0,0 0,-0.1 0,-0.1 C 8.5,10.2 8.7,9.8 9,9.6 L 9,6 c 0,-2.5 2.1,-6 5.9,-6 3.6,0 4.6,1.9 4.7,2.8 0.6,0.3 1.4,1 1.4,3.2 l 0,3.6 c 0.3,0.2 0.5,0.5 0.5,0.9 0,1.1 -0.6,2.7 -0.6,2.7 -0.1,0.2 -0.2,0.3 -0.3,0.3 -0.1,0 -0.2,0.2 -0.2,0.8 0,1.1 -0.4,1.7 -0.7,2 0,0 -0.1,0.1 -0.1,0.1 -0.1,0.2 -0.5,0.3 -0.7,0.2 -0.2,-0.1 -0.3,-0.5 -0.2,-0.7 0,-0.1 0.1,-0.1 0.1,-0.2 0.2,-0.3 0.5,-0.6 0.5,-1.4 0,-0.9 0.4,-1.4 0.7,-1.6 0.2,-0.5 0.5,-1.5 0.5,-2.2 l 0,0 c 0,0 0,-0.1 0,-0.1 C 20.2,10.4 20,10.2 20,9.9 L 20,6 C 20,4.1 19.4,3.8 19.1,3.6 19,3.5 18.7,3.4 18.7,3.1 18.7,3 18.7,2.9 18.7,2.9 18.6,2.4 17.9,1 14.9,1 11.9,1 10,3.9 10,6 l 0,4 c 0,0.3 -0.2,0.5 -0.5,0.5 0,0 -0.1,0.1 -0.1,0.2 0,0.6 0.3,1.6 0.5,2.1 0.3,0.2 0.7,0.7 0.7,1.6 0,0.9 0.8,2.1 1.6,2.8 0.1,0.1 0.2,0.2 0.2,0.4 0,0.8 -0.7,4 -2.7,4.9 l -5.9,1.9 c -1,0.4 -1.8,1.2 -2,2.3 l -0.7,3 C 0.9,29.8 0.7,30 0.5,30 Z"
               id="path4761" />
          </g>
        </g>
        <g
           id="g4763">
          <path
             inkscape:connector-curvature="0"
             d="M 28.5,22 C 28.2,22 28,21.8 28,21.5 l 0,-1 C 28,18.6 26.4,17 24.5,17 22.6,17 21,18.6 21,20.5 l 0,1 C 21,21.8 20.8,22 20.5,22 20.2,22 20,21.8 20,21.5 l 0,-1 C 20,18 22,16 24.5,16 27,16 29,18 29,20.5 l 0,1 c 0,0.3 -0.2,0.5 -0.5,0.5 z"
             id="path4765" />
        </g>
        <g
           id="g4767">
          <path
             inkscape:connector-curvature="0"
             d="M 24.5,26 C 23.7,26 23,25.3 23,24.5 23,23.7 23.7,23 24.5,23 c 0.8,0 1.5,0.7 1.5,1.5 0,0.8 -0.7,1.5 -1.5,1.5 z m 0,-2 C 24.2,24 24,24.2 24,24.5 24,24.8 24.2,25 24.5,25 24.8,25 25,24.8 25,24.5 25,24.2 24.8,24 24.5,24 Z"
             id="path4769" />
        </g>
      </g>
    </g>
  </g>
  <g
     inkscape:groupmode="layer"
     id="layer3"
     inkscape:label="Opera"
     transform="translate(98.992741,-21.597012)"
     style="display:inline" />
  <style
     id="style9651"
     type="text/css">
	.st0{fill:#231F20;}
</style>
  <style
     id="style11289"
     type="text/css">
	.st0{fill:#231F20;}
</style>
</svg>
