<?xml version="1.0" encoding="UTF-8" standalone="no"?>
<!-- Created with Inkscape (http://www.inkscape.org/) -->

<svg
   xmlns:dc="http://purl.org/dc/elements/1.1/"
   xmlns:cc="http://creativecommons.org/ns#"
   xmlns:rdf="http://www.w3.org/1999/02/22-rdf-syntax-ns#"
   xmlns:svg="http://www.w3.org/2000/svg"
   xmlns="http://www.w3.org/2000/svg"
   xmlns:sodipodi="http://sodipodi.sourceforge.net/DTD/sodipodi-0.dtd"
   xmlns:inkscape="http://www.inkscape.org/namespaces/inkscape"
   width="354.71555mm"
   height="160.91112mm"
   viewBox="0 0 1256.8661 570.1575"
   id="svg2"
   version="1.1"
   inkscape:version="0.91 r13725"
   sodipodi:docname="browser-with-serviceworker.svg">
  <defs
     id="defs4" />
  <sodipodi:namedview
     id="base"
     pagecolor="#ffffff"
     bordercolor="#666666"
     borderopacity="1.0"
     inkscape:pageopacity="0.0"
     inkscape:pageshadow="2"
     inkscape:zoom="0.7"
     inkscape:cx="832.49345"
     inkscape:cy="281.46858"
     inkscape:document-units="px"
     inkscape:current-layer="layer1"
     showgrid="false"
     fit-margin-top="10"
     fit-margin-left="10"
     fit-margin-right="10"
     fit-margin-bottom="10"
     inkscape:window-width="3200"
     inkscape:window-height="1671"
     inkscape:window-x="0"
     inkscape:window-y="55"
     inkscape:window-maximized="1" />
  <metadata
     id="metadata7">
    <rdf:RDF>
      <cc:Work
         rdf:about="">
        <dc:format>image/svg+xml</dc:format>
        <dc:type
           rdf:resource="http://purl.org/dc/dcmitype/StillImage" />
        <dc:title></dc:title>
      </cc:Work>
    </rdf:RDF>
  </metadata>
  <g
     inkscape:label="Layer 1"
     inkscape:groupmode="layer"
     id="layer1"
     transform="translate(16.427178,-56.109921)">
    <g
       transform="matrix(15,0,0,15.250001,19.005893,133.3343)"
       id="g12441">
      <path
         sodipodi:nodetypes="ssssssssssssssssss"
         inkscape:connector-curvature="0"
         d="M 43.766666,30 2.5,30 C 1.1,30 0,28.9 0,27.5 L 0,2.5 C 0,1.1 1.1,0 2.5,0 l 41.266666,0 c 1.4,0 2.5,1.1 2.5,2.5 l 0,25 c 0,1.4 -1.1,2.5 -2.5,2.5 z M 2.5,1 C 1.7,1 1,1.7 1,2.5 l 0,25 C 1,28.3 1.7,29 2.5,29 l 41.266666,0 c 0.8,0 1.5,-0.7 1.5,-1.5 l 0,-25 c 0,-0.8 -0.7,-1.5 -1.5,-1.5 z"
         id="path12443" />
    </g>
    <path
       id="path12447"
       d="m 700.50589,208.3343 -673.999997,0 c -4.5,0 -7.5,-3 -7.5,-7.5 0,-4.5 3,-7.5 7.5,-7.5 l 673.999997,0 c 4.5,0 7.5,3 7.5,7.5 0,4.5 -4.5,7.5 -7.5,7.5 z"
       inkscape:connector-curvature="0"
       sodipodi:nodetypes="sssssss" />
    <path
       sodipodi:nodetypes="sssssss"
       inkscape:connector-curvature="0"
       d="m 1192.5039,208.3343 -347.99971,0 c -4.5,0 -7.49998,-3 -7.49998,-7.5 0,-4.5 2.99998,-7.5 7.49998,-7.5 l 347.99971,0 c 4.4999,0 7.4998,3 7.4998,7.5 0,4.5 -4.4999,7.5 -7.4998,7.5 z"
       id="path13019"
       style="opacity:0.4" />
    <text
       sodipodi:linespacing="125%"
       id="text13067"
       y="376.64487"
       x="745.00146"
       style="font-style:normal;font-weight:normal;font-size:40px;line-height:125%;font-family:sans-serif;letter-spacing:0px;word-spacing:0px;fill:#000000;fill-opacity:1;stroke:none;stroke-width:1px;stroke-linecap:butt;stroke-linejoin:miter;stroke-opacity:1"
       xml:space="preserve"><tspan
         y="376.64487"
         x="745.00146"
         id="tspan13069"
         sodipodi:role="line">OR</tspan></text>
    <g
       id="g12465"
       transform="matrix(15,0,0,15,19.005893,133.3343)">
      <circle
         cx="2.5"
         cy="2.5"
         r="0.5"
         id="circle12467" />
    </g>
    <g
       id="g12469"
       transform="matrix(15,0,0,15,19.005893,133.3343)">
      <circle
         cx="4.5"
         cy="2.5"
         r="0.5"
         id="circle12471" />
    </g>
    <g
       id="g12473"
       transform="matrix(15,0,0,15,19.005893,133.3343)">
      <circle
         cx="6.5"
         cy="2.5"
         r="0.5"
         id="circle12475" />
    </g>
    <g
       transform="matrix(15,0,0,15,23.151489,141.3343)"
       id="g12748">
      <text
         xml:space="preserve"
         style="font-style:normal;font-weight:normal;font-size:2.66666675px;line-height:125%;font-family:sans-serif;letter-spacing:0px;word-spacing:0px;fill:#000000;fill-opacity:1;stroke:none;stroke-width:1px;stroke-linecap:butt;stroke-linejoin:miter;stroke-opacity:1"
         x="1.4757974"
         y="7.2113843"
         id="text12506"
         sodipodi:linespacing="125%"><tspan
           sodipodi:role="line"
           id="tspan12508"
           x="1.4757974"
           y="7.2113843">Web Page</tspan></text>
      <rect
         style="opacity:1;fill:none;fill-opacity:1;stroke:#000000;stroke-width:0.52516305;stroke-miterlimit:4;stroke-dasharray:none;stroke-opacity:1"
         id="rect12510"
         width="18.726746"
         height="19.05394"
         x="1.8269206"
         y="8.741559"
         rx="0.63429296"
         ry="0.9783197" />
      <g
         id="g12741"
         transform="translate(0.259213,-0.34162548)">
        <text
           sodipodi:linespacing="125%"
           id="text12527"
           y="12.325668"
           x="2.7138934"
           style="font-style:normal;font-weight:normal;font-size:2.66666675px;line-height:125%;font-family:sans-serif;letter-spacing:0px;word-spacing:0px;fill:#000000;fill-opacity:1;stroke:none;stroke-width:1px;stroke-linecap:butt;stroke-linejoin:miter;stroke-opacity:1"
           xml:space="preserve"><tspan
             y="12.325668"
             x="2.7138934"
             id="tspan12529"
             sodipodi:role="line">JavaScript</tspan></text>
        <g
           transform="translate(0.1581398,-0.13333333)"
           id="g12737">
          <rect
             style="opacity:1;fill:none;fill-opacity:1;stroke:#000000;stroke-width:0.39503941;stroke-miterlimit:4;stroke-dasharray:1.58015754, 1.58015754;stroke-dashoffset:0;stroke-opacity:1"
             id="rect12510-3"
             width="15.60496"
             height="12.938293"
             x="2.6152523"
             y="13.918202"
             rx="0.5285551"
             ry="0.66431344" />
          <path
             id="path12724"
             d="m 14.873783,20.281732 -2.400001,-2.400001 c -0.0585,-0.0585 -0.1536,-0.0585 -0.2121,0 -0.0585,0.0585 -0.0585,0.153601 0,0.212101 l 2.2938,2.2938 -2.2938,2.293799 c -0.0585,0.0585 -0.0585,0.153601 0,0.212101 0.0294,0.0291 0.0678,0.0438 0.1062,0.0438 0.0384,0 0.0768,-0.0144 0.1059,-0.0435 l 2.400001,-2.4 c 0.0585,-0.0585 0.0585,-0.1536 0,-0.2121 z m -6.3000009,-2.4003 c -0.0585,-0.0585 -0.1536001,-0.0585 -0.2121001,0 l -2.4000001,2.4 c -0.0585,0.0585 -0.0585,0.153599 0,0.212099 l 2.4000001,2.400001 c 0.0294,0.0291 0.0675,0.0438 0.1059,0.0438 0.0384,0 0.0768,-0.0144 0.1059,-0.0441 0.0585,-0.0585 0.0585,-0.153601 0,-0.212101 l -2.2935001,-2.293803 2.2938002,-2.2938 c 0.0585,-0.0585 0.0585,-0.153599 0,-0.212099 z m 3.5483999,-1.833901 c -0.0765,-0.0297 -0.1638,0.0078 -0.1944,0.0849 l -3.3,8.400001 c -0.0303,0.0771 0.0078,0.1641 0.0849,0.1944 0.0183,0.0072 0.0369,0.0105 0.0549,0.0105 0.0597,0 0.1164,-0.036 0.1395,-0.0954 l 3.3,-8.400001 c 0.0306,-0.0771 -0.0075,-0.164099 -0.0849,-0.1944 z"
             inkscape:connector-curvature="0" />
        </g>
      </g>
    </g>
    <text
       xml:space="preserve"
       style="font-style:normal;font-weight:normal;font-size:40px;line-height:125%;font-family:sans-serif;letter-spacing:0px;word-spacing:0px;fill:#000000;fill-opacity:1;stroke:none;stroke-width:1px;stroke-linecap:butt;stroke-linejoin:miter;stroke-opacity:1"
       x="15.080112"
       y="121.93362"
       id="text12502"
       sodipodi:linespacing="125%"><tspan
         sodipodi:role="line"
         id="tspan12504"
         x="15.080112"
         y="121.93362">Browser</tspan></text>
    <text
       xml:space="preserve"
       style="font-style:normal;font-weight:normal;font-size:40px;line-height:125%;font-family:sans-serif;letter-spacing:0px;word-spacing:0px;fill:#000000;fill-opacity:1;stroke:none;stroke-width:1px;stroke-linecap:butt;stroke-linejoin:miter;stroke-opacity:1"
       x="361.78519"
       y="321.09494"
       id="text12901"
       sodipodi:linespacing="125%"><tspan
         sodipodi:role="line"
         id="tspan12903"
         x="361.78519"
         y="321.09494">Service worker</tspan></text>
    <g
       id="g12905"
       transform="matrix(15,0,0,15,355.41179,134.20992)">
      <rect
         ry="0.66431344"
         rx="0.5285551"
         y="13.918202"
         x="2.6152523"
         height="12.938293"
         width="15.60496"
         id="rect12907"
         style="opacity:1;fill:none;fill-opacity:1;stroke:#000000;stroke-width:0.39503941;stroke-miterlimit:4;stroke-dasharray:1.58015754, 1.58015754;stroke-dashoffset:0;stroke-opacity:1" />
      <path
         inkscape:connector-curvature="0"
         d="m 14.873783,20.281732 -2.400001,-2.400001 c -0.0585,-0.0585 -0.1536,-0.0585 -0.2121,0 -0.0585,0.0585 -0.0585,0.153601 0,0.212101 l 2.2938,2.2938 -2.2938,2.293799 c -0.0585,0.0585 -0.0585,0.153601 0,0.212101 0.0294,0.0291 0.0678,0.0438 0.1062,0.0438 0.0384,0 0.0768,-0.0144 0.1059,-0.0435 l 2.400001,-2.4 c 0.0585,-0.0585 0.0585,-0.1536 0,-0.2121 z m -6.3000009,-2.4003 c -0.0585,-0.0585 -0.1536001,-0.0585 -0.2121001,0 l -2.4000001,2.4 c -0.0585,0.0585 -0.0585,0.153599 0,0.212099 l 2.4000001,2.400001 c 0.0294,0.0291 0.0675,0.0438 0.1059,0.0438 0.0384,0 0.0768,-0.0144 0.1059,-0.0441 0.0585,-0.0585 0.0585,-0.153601 0,-0.212101 l -2.2935001,-2.293803 2.2938002,-2.2938 c 0.0585,-0.0585 0.0585,-0.153599 0,-0.212099 z m 3.5483999,-1.833901 c -0.0765,-0.0297 -0.1638,0.0078 -0.1944,0.0849 l -3.3,8.400001 c -0.0303,0.0771 0.0078,0.1641 0.0849,0.1944 0.0183,0.0072 0.0369,0.0105 0.0549,0.0105 0.0597,0 0.1164,-0.036 0.1395,-0.0954 l 3.3,-8.400001 c 0.0306,-0.0771 -0.0075,-0.164099 -0.0849,-0.1944 z"
         id="path12909" />
    </g>
    <g
       id="g13015"
       transform="matrix(15,0,0,15.250001,837.00589,133.3343)"
       style="opacity:0.4">
      <path
         id="path13017"
         d="M 22.033333,30 2.5,30 C 1.1,30 0,28.9 0,27.5 L 0,2.5 C 0,1.1 1.1,0 2.5,0 l 19.533333,0 c 1.4,0 2.5,1.1 2.5,2.5 l 0,25 c 0,1.4 -1.1,2.5 -2.5,2.5 z M 2.5,1 C 1.7,1 1,1.7 1,2.5 l 0,25 C 1,28.3 1.7,29 2.5,29 l 19.533333,0 c 0.8,0 1.5,-0.7 1.5,-1.5 l 0,-25 c 0,-0.8 -0.7,-1.5 -1.5,-1.5 z"
         inkscape:connector-curvature="0"
         sodipodi:nodetypes="ssssssssssssssssss" />
    </g>
    <g
       transform="matrix(15,0,0,15,837.00589,133.3343)"
       id="g13021"
       style="opacity:0.4">
      <circle
         id="circle13023"
         r="0.5"
         cy="2.5"
         cx="2.5" />
    </g>
    <g
       transform="matrix(15,0,0,15,837.00589,133.3343)"
       id="g13025"
       style="opacity:0.4">
      <circle
         id="circle13027"
         r="0.5"
         cy="2.5"
         cx="4.5" />
    </g>
    <g
       transform="matrix(15,0,0,15,837.00589,133.3343)"
       id="g13029"
       style="opacity:0.4">
      <circle
         id="circle13031"
         r="0.5"
         cy="2.5"
         cx="6.5" />
    </g>
    <text
       sodipodi:linespacing="125%"
       id="text13053"
       y="121.93362"
       x="833.08008"
       style="font-style:normal;font-weight:normal;font-size:40px;line-height:125%;font-family:sans-serif;letter-spacing:0px;word-spacing:0px;fill:#000000;fill-opacity:1;stroke:none;stroke-width:1px;stroke-linecap:butt;stroke-linejoin:miter;stroke-opacity:1"
       xml:space="preserve"><tspan
         y="121.93362"
         x="833.08008"
         id="tspan13055"
         sodipodi:role="line">Closed Browser</tspan></text>
    <g
       id="g13071"
       transform="translate(9.3280921,0)">
      <text
         xml:space="preserve"
         style="font-style:normal;font-weight:normal;font-size:40px;line-height:125%;font-family:sans-serif;letter-spacing:0px;word-spacing:0px;fill:#000000;fill-opacity:1;stroke:none;stroke-width:1px;stroke-linecap:butt;stroke-linejoin:miter;stroke-opacity:1"
         x="861.78522"
         y="321.09494"
         id="text13057"
         sodipodi:linespacing="125%"><tspan
           sodipodi:role="line"
           id="tspan13059"
           x="861.78522"
           y="321.09494">Service worker</tspan></text>
      <g
         id="g13061"
         transform="matrix(15,0,0,15,855.4118,134.20992)">
        <rect
           ry="0.66431344"
           rx="0.5285551"
           y="13.918202"
           x="2.6152523"
           height="12.938293"
           width="15.60496"
           id="rect13063"
           style="opacity:1;fill:none;fill-opacity:1;stroke:#000000;stroke-width:0.39503941;stroke-miterlimit:4;stroke-dasharray:1.58015754, 1.58015754;stroke-dashoffset:0;stroke-opacity:1" />
        <path
           inkscape:connector-curvature="0"
           d="m 14.873783,20.281732 -2.400001,-2.400001 c -0.0585,-0.0585 -0.1536,-0.0585 -0.2121,0 -0.0585,0.0585 -0.0585,0.153601 0,0.212101 l 2.2938,2.2938 -2.2938,2.293799 c -0.0585,0.0585 -0.0585,0.153601 0,0.212101 0.0294,0.0291 0.0678,0.0438 0.1062,0.0438 0.0384,0 0.0768,-0.0144 0.1059,-0.0435 l 2.400001,-2.4 c 0.0585,-0.0585 0.0585,-0.1536 0,-0.2121 z m -6.3000009,-2.4003 c -0.0585,-0.0585 -0.1536001,-0.0585 -0.2121001,0 l -2.4000001,2.4 c -0.0585,0.0585 -0.0585,0.153599 0,0.212099 l 2.4000001,2.400001 c 0.0294,0.0291 0.0675,0.0438 0.1059,0.0438 0.0384,0 0.0768,-0.0144 0.1059,-0.0441 0.0585,-0.0585 0.0585,-0.153601 0,-0.212101 l -2.2935001,-2.293803 2.2938002,-2.2938 c 0.0585,-0.0585 0.0585,-0.153599 0,-0.212099 z m 3.5483999,-1.833901 c -0.0765,-0.0297 -0.1638,0.0078 -0.1944,0.0849 l -3.3,8.400001 c -0.0303,0.0771 0.0078,0.1641 0.0849,0.1944 0.0183,0.0072 0.0369,0.0105 0.0549,0.0105 0.0597,0 0.1164,-0.036 0.1395,-0.0954 l 3.3,-8.400001 c 0.0306,-0.0771 -0.0075,-0.164099 -0.0849,-0.1944 z"
           id="path13065" />
      </g>
    </g>
  </g>
</svg>
