<?xml version="1.0" encoding="UTF-8" standalone="no"?>
<!-- Generator: Adobe Illustrator 19.0.0, SVG Export Plug-In . SVG Version: 6.00 Build 0)  -->

<svg
   xmlns:dc="http://purl.org/dc/elements/1.1/"
   xmlns:cc="http://creativecommons.org/ns#"
   xmlns:rdf="http://www.w3.org/1999/02/22-rdf-syntax-ns#"
   xmlns:svg="http://www.w3.org/2000/svg"
   xmlns="http://www.w3.org/2000/svg"
   xmlns:sodipodi="http://sodipodi.sourceforge.net/DTD/sodipodi-0.dtd"
   xmlns:inkscape="http://www.inkscape.org/namespaces/inkscape"
   version="1.1"
   id="Layer_1"
   x="0px"
   y="0px"
   viewBox="0 0 30 30"
   style="enable-background:new 0 0 30 30;"
   xml:space="preserve"
   inkscape:version="0.91 r13725"
   sodipodi:docname="alpha-banner.svg"><metadata
     id="metadata11"><rdf:RDF><cc:Work
         rdf:about=""><dc:format>image/svg+xml</dc:format><dc:type
           rdf:resource="http://purl.org/dc/dcmitype/StillImage" /><dc:title></dc:title></cc:Work></rdf:RDF></metadata><defs
     id="defs9" /><sodipodi:namedview
     pagecolor="#ffffff"
     bordercolor="#666666"
     borderopacity="1"
     objecttolerance="10"
     gridtolerance="10"
     guidetolerance="10"
     inkscape:pageopacity="0"
     inkscape:pageshadow="2"
     inkscape:window-width="1280"
     inkscape:window-height="1016"
     id="namedview7"
     showgrid="false"
     inkscape:zoom="7.8666667"
     inkscape:cx="53.821301"
     inkscape:cy="14.809322"
     inkscape:window-x="0"
     inkscape:window-y="27"
     inkscape:window-maximized="0"
     inkscape:current-layer="g3" /><g
     id="g3"><path
       style="fill:#fc0f69;fill-opacity:1"
       d="M 0.5 0 C 0.3 0 0.1 0.10078125 0 0.30078125 C 0 0.50078125 -0.000390625 0.70039062 0.099609375 0.90039062 L 29.099609 29.900391 C 29.199609 30.000391 29.3 30 29.5 30 L 29.699219 30 C 29.899219 29.9 30 29.7 30 29.5 L 30 12.5 C 30 12.4 29.900391 12.199609 29.900391 12.099609 L 17.900391 0.099609375 C 17.800391 0.099609375 17.6 3.7007434e-17 17.5 0 L 0.5 0 z M 16.072266 3.1640625 C 16.151678 3.164193 16.218516 3.1929385 16.275391 3.25 C 16.332267 3.3070624 16.361688 3.375891 16.363281 3.4570312 C 16.361473 3.5070927 16.350863 3.5523534 16.330078 3.59375 L 14.058594 8.734375 C 14.044723 8.7723343 14.021135 8.8070973 13.988281 8.8398438 C 13.931219 8.8967193 13.862161 8.9239635 13.779297 8.9238281 C 13.699885 8.9236976 13.631094 8.8969048 13.574219 8.8398438 C 13.517343 8.7827814 13.488151 8.7141774 13.488281 8.6347656 C 13.488351 8.5933363 13.495902 8.554039 13.509766 8.5195312 L 14.320312 6.6835938 L 12.835938 5.1933594 L 10.996094 6 C 10.961546 6.0137556 10.924477 6.0198264 10.884766 6.0214844 C 10.803631 6.0196257 10.73461 5.9906562 10.677734 5.9335938 C 10.620858 5.8765313 10.59339 5.8077034 10.591797 5.7265625 C 10.593656 5.6454268 10.622625 5.5764068 10.679688 5.5195312 C 10.71254 5.4867847 10.747157 5.4629695 10.785156 5.4492188 L 15.931641 3.1953125 C 15.973105 3.1746631 16.020476 3.1639785 16.072266 3.1640625 z M 15.496094 4.0273438 L 13.412109 4.9414062 L 14.576172 6.109375 L 15.496094 4.0273438 z M 18.341797 5.4472656 C 18.424661 5.4474008 18.493906 5.476141 18.550781 5.5332031 C 18.607655 5.5902658 18.636619 5.6590998 18.634766 5.7402344 C 18.636366 5.8213748 18.607848 5.8903902 18.550781 5.9472656 L 15.023438 9.4628906 L 15.230469 9.6699219 C 15.287342 9.7269839 15.31436 9.7958179 15.3125 9.8769531 C 15.3141 9.9580935 15.285582 10.027109 15.228516 10.083984 C 15.171456 10.140858 15.102397 10.170055 15.019531 10.169922 C 14.940119 10.169791 14.871328 10.141047 14.814453 10.083984 L 14.402344 9.6699219 C 14.34547 9.6128599 14.316046 9.5420784 14.314453 9.4609375 C 14.31632 9.3798018 14.34529 9.3107821 14.402344 9.2539062 L 18.136719 5.53125 C 18.193779 5.474374 18.262382 5.4471343 18.341797 5.4472656 z M 18.339844 8.6601562 C 18.906081 8.6610831 19.389209 8.8625068 19.789062 9.2636719 C 20.188916 9.6648371 20.387645 10.148606 20.386719 10.714844 C 20.385785 11.28108 20.184362 11.76421 19.783203 12.164062 C 19.382038 12.563918 18.898268 12.762645 18.332031 12.761719 C 17.765794 12.760785 17.282667 12.559362 16.882812 12.158203 C 16.48296 11.757038 16.28423 11.273269 16.285156 10.707031 L 16.285156 10.6875 L 14.8125 12.15625 C 14.75544 12.213123 14.684653 12.240141 14.603516 12.238281 C 14.522374 12.239881 14.453359 12.211364 14.396484 12.154297 C 14.339611 12.097237 14.312367 12.02818 14.3125 11.945312 C 14.312629 11.865901 14.341372 11.79711 14.398438 11.740234 L 16.888672 9.2578125 C 17.289837 8.8579591 17.773606 8.6592292 18.339844 8.6601562 z M 18.337891 9.2460938 C 17.933929 9.2454321 17.587822 9.3877261 17.300781 9.6738281 C 17.013741 9.9599299 16.869802 10.305022 16.869141 10.708984 C 16.868479 11.112946 17.012726 11.459053 17.298828 11.746094 C 17.58493 12.033134 17.930022 12.177073 18.333984 12.177734 C 18.737946 12.178396 19.082101 12.034149 19.369141 11.748047 C 19.656181 11.461945 19.80012 11.116853 19.800781 10.712891 C 19.801443 10.308929 19.659149 9.964775 19.373047 9.6777344 C 19.086945 9.390694 18.741853 9.2467552 18.337891 9.2460938 z M 22.892578 10.011719 C 22.975441 10.011854 23.044687 10.040592 23.101562 10.097656 C 23.158436 10.154716 23.185454 10.223549 23.183594 10.304688 C 23.185194 10.385827 23.15863 10.454843 23.101562 10.511719 L 21.6875 11.919922 C 22.196755 11.929389 22.632205 12.117346 22.994141 12.480469 C 23.364695 12.852237 23.547511 13.299643 23.544922 13.826172 C 23.545789 14.352706 23.362006 14.801321 22.990234 15.171875 L 21.640625 16.517578 C 21.583565 16.574451 21.514507 16.601696 21.431641 16.601562 C 21.352229 16.601433 21.283438 16.572688 21.226562 16.515625 C 21.16969 16.458565 21.140265 16.389736 21.138672 16.308594 C 21.140539 16.227458 21.16951 16.158438 21.226562 16.101562 L 22.576172 14.757812 C 22.833817 14.501011 22.962067 14.190431 22.960938 13.826172 C 22.963271 13.461918 22.834938 13.150223 22.578125 12.892578 C 22.321323 12.634934 22.010514 12.506459 21.644531 12.505859 C 21.282001 12.505265 20.972488 12.633822 20.714844 12.890625 L 19.365234 14.234375 C 19.308174 14.291248 19.239116 14.320447 19.15625 14.320312 C 19.076838 14.320183 19.008047 14.291438 18.951172 14.234375 C 18.894299 14.177315 18.864875 14.108487 18.863281 14.027344 C 18.865148 13.946208 18.894119 13.877189 18.951172 13.820312 L 22.6875 10.097656 C 22.74456 10.040783 22.813163 10.011592 22.892578 10.011719 z M 24.75 15.09375 C 25.316237 15.094683 25.799365 15.294154 26.199219 15.695312 C 26.599073 16.096478 26.799755 16.580248 26.798828 17.146484 C 26.797895 17.712722 26.596471 18.19585 26.195312 18.595703 L 24.949219 19.837891 C 24.892159 19.894764 24.8231 19.922008 24.740234 19.921875 C 24.660822 19.921744 24.592031 19.893 24.535156 19.835938 C 24.478283 19.778878 24.448859 19.710049 24.447266 19.628906 C 24.449132 19.54777 24.480056 19.47875 24.537109 19.421875 L 24.763672 19.195312 C 24.183624 19.194379 23.694775 18.992978 23.294922 18.591797 C 22.895069 18.190632 22.694386 17.706862 22.695312 17.140625 C 22.696246 16.574388 22.897669 16.09126 23.298828 15.691406 C 23.699993 15.291553 24.183763 15.092823 24.75 15.09375 z M 24.75 15.677734 C 24.346038 15.677073 23.999931 15.819367 23.712891 16.105469 C 23.425851 16.391571 23.281911 16.736663 23.28125 17.140625 C 23.280588 17.544586 23.422882 17.890694 23.708984 18.177734 C 23.995087 18.464775 24.340179 18.608714 24.744141 18.609375 C 25.148103 18.610037 25.49421 18.467743 25.78125 18.181641 C 26.068291 17.895539 26.212229 17.550446 26.212891 17.146484 C 26.213552 16.742522 26.071258 16.396416 25.785156 16.109375 C 25.499054 15.822335 25.153961 15.678396 24.75 15.677734 z "
       id="path5" /></g></svg>